<svg class="rich-terminal" viewBox="0 0 1238 733.1999999999999" xmlns="http://www.w3.org/2000/svg">
    <!-- Generated with Rich https://www.textualize.io -->
    <style>

    @font-face {
        font-family: "Fira Code";
        src: local("FiraCode-Regular"),
                url("https://cdnjs.cloudflare.com/ajax/libs/firacode/6.2.0/woff2/FiraCode-Regular.woff2") format("woff2"),
                url("https://cdnjs.cloudflare.com/ajax/libs/firacode/6.2.0/woff/FiraCode-Regular.woff") format("woff");
        font-style: normal;
        font-weight: 400;
    }
    @font-face {
        font-family: "Fira Code";
        src: local("FiraCode-Bold"),
                url("https://cdnjs.cloudflare.com/ajax/libs/firacode/6.2.0/woff2/FiraCode-Bold.woff2") format("woff2"),
                url("https://cdnjs.cloudflare.com/ajax/libs/firacode/6.2.0/woff/FiraCode-Bold.woff") format("woff");
        font-style: bold;
        font-weight: 700;
    }

    .terminal-3725566902-matrix {
        font-family: Fira Code, monospace;
        font-size: 20px;
        line-height: 24.4px;
        font-variant-east-asian: full-width;
    }

    .terminal-3725566902-title {
        font-size: 18px;
        font-weight: bold;
        font-family: arial;
    }

    .terminal-3725566902-r1 { fill: #c5c8c6 }
.terminal-3725566902-r2 { fill: #e0e0e0 }
.terminal-3725566902-r3 { fill: #7f7f7f }
.terminal-3725566902-r4 { fill: #313131 }
.terminal-3725566902-r5 { fill: #0178d4 }
.terminal-3725566902-r6 { fill: #e0e0e0;font-weight: bold }
.terminal-3725566902-r7 { fill: #ddedf9;font-weight: bold }
.terminal-3725566902-r8 { fill: #a5a5a5 }
.terminal-3725566902-r9 { fill: #ffa62b;font-weight: bold }
.terminal-3725566902-r10 { fill: #495259 }
    </style>

    <defs>
    <clipPath id="terminal-3725566902-clip-terminal">
      <rect x="0" y="0" width="1219.0" height="682.1999999999999" />
    </clipPath>
    <clipPath id="terminal-3725566902-line-0">
    <rect x="0" y="1.5" width="1220" height="24.65"/>
            </clipPath>
<clipPath id="terminal-3725566902-line-1">
    <rect x="0" y="25.9" width="1220" height="24.65"/>
            </clipPath>
<clipPath id="terminal-3725566902-line-2">
    <rect x="0" y="50.3" width="1220" height="24.65"/>
            </clipPath>
<clipPath id="terminal-3725566902-line-3">
    <rect x="0" y="74.7" width="1220" height="24.65"/>
            </clipPath>
<clipPath id="terminal-3725566902-line-4">
    <rect x="0" y="99.1" width="1220" height="24.65"/>
            </clipPath>
<clipPath id="terminal-3725566902-line-5">
    <rect x="0" y="123.5" width="1220" height="24.65"/>
            </clipPath>
<clipPath id="terminal-3725566902-line-6">
    <rect x="0" y="147.9" width="1220" height="24.65"/>
            </clipPath>
<clipPath id="terminal-3725566902-line-7">
    <rect x="0" y="172.3" width="1220" height="24.65"/>
            </clipPath>
<clipPath id="terminal-3725566902-line-8">
    <rect x="0" y="196.7" width="1220" height="24.65"/>
            </clipPath>
<clipPath id="terminal-3725566902-line-9">
    <rect x="0" y="221.1" width="1220" height="24.65"/>
            </clipPath>
<clipPath id="terminal-3725566902-line-10">
    <rect x="0" y="245.5" width="1220" height="24.65"/>
            </clipPath>
<clipPath id="terminal-3725566902-line-11">
    <rect x="0" y="269.9" width="1220" height="24.65"/>
            </clipPath>
<clipPath id="terminal-3725566902-line-12">
    <rect x="0" y="294.3" width="1220" height="24.65"/>
            </clipPath>
<clipPath id="terminal-3725566902-line-13">
    <rect x="0" y="318.7" width="1220" height="24.65"/>
            </clipPath>
<clipPath id="terminal-3725566902-line-14">
    <rect x="0" y="343.1" width="1220" height="24.65"/>
            </clipPath>
<clipPath id="terminal-3725566902-line-15">
    <rect x="0" y="367.5" width="1220" height="24.65"/>
            </clipPath>
<clipPath id="terminal-3725566902-line-16">
    <rect x="0" y="391.9" width="1220" height="24.65"/>
            </clipPath>
<clipPath id="terminal-3725566902-line-17">
    <rect x="0" y="416.3" width="1220" height="24.65"/>
            </clipPath>
<clipPath id="terminal-3725566902-line-18">
    <rect x="0" y="440.7" width="1220" height="24.65"/>
            </clipPath>
<clipPath id="terminal-3725566902-line-19">
    <rect x="0" y="465.1" width="1220" height="24.65"/>
            </clipPath>
<clipPath id="terminal-3725566902-line-20">
    <rect x="0" y="489.5" width="1220" height="24.65"/>
            </clipPath>
<clipPath id="terminal-3725566902-line-21">
    <rect x="0" y="513.9" width="1220" height="24.65"/>
            </clipPath>
<clipPath id="terminal-3725566902-line-22">
    <rect x="0" y="538.3" width="1220" height="24.65"/>
            </clipPath>
<clipPath id="terminal-3725566902-line-23">
    <rect x="0" y="562.7" width="1220" height="24.65"/>
            </clipPath>
<clipPath id="terminal-3725566902-line-24">
    <rect x="0" y="587.1" width="1220" height="24.65"/>
            </clipPath>
<clipPath id="terminal-3725566902-line-25">
    <rect x="0" y="611.5" width="1220" height="24.65"/>
            </clipPath>
<clipPath id="terminal-3725566902-line-26">
    <rect x="0" y="635.9" width="1220" height="24.65"/>
            </clipPath>
    </defs>

    <rect fill="#292929" stroke="rgba(255,255,255,0.35)" stroke-width="1" x="1" y="1" width="1236" height="731.2" rx="8"/><text class="terminal-3725566902-title" fill="#c5c8c6" text-anchor="middle" x="618" y="27">Ollama&#160;TUI&#160;v0.1.0</text>
            <g transform="translate(26,22)">
            <circle cx="0" cy="0" r="7" fill="#ff5f57"/>
            <circle cx="22" cy="0" r="7" fill="#febc2e"/>
            <circle cx="44" cy="0" r="7" fill="#28c840"/>
            </g>
        
    <g transform="translate(9, 41)" clip-path="url(#terminal-3725566902-clip-terminal)">
    <rect fill="#242f38" x="0" y="1.5" width="12.2" height="24.65" shape-rendering="crispEdges"/><rect fill="#242f38" x="12.2" y="1.5" width="12.2" height="24.65" shape-rendering="crispEdges"/><rect fill="#242f38" x="24.4" y="1.5" width="61" height="24.65" shape-rendering="crispEdges"/><rect fill="#242f38" x="85.4" y="1.5" width="12.2" height="24.65" shape-rendering="crispEdges"/><rect fill="#242f38" x="97.6" y="1.5" width="390.4" height="24.65" shape-rendering="crispEdges"/><rect fill="#242f38" x="488" y="1.5" width="207.4" height="24.65" shape-rendering="crispEdges"/><rect fill="#242f38" x="695.4" y="1.5" width="402.6" height="24.65" shape-rendering="crispEdges"/><rect fill="#242f38" x="1098" y="1.5" width="12.2" height="24.65" shape-rendering="crispEdges"/><rect fill="#242f38" x="1110.2" y="1.5" width="0" height="24.65" shape-rendering="crispEdges"/><rect fill="#242f38" x="1110.2" y="1.5" width="97.6" height="24.65" shape-rendering="crispEdges"/><rect fill="#242f38" x="1207.8" y="1.5" width="12.2" height="24.65" shape-rendering="crispEdges"/><rect fill="#1e1e1e" x="0" y="25.9" width="12.2" height="24.65" shape-rendering="crispEdges"/><rect fill="#1e1e1e" x="12.2" y="25.9" width="122" height="24.65" shape-rendering="crispEdges"/><rect fill="#1e1e1e" x="134.2" y="25.9" width="12.2" height="24.65" shape-rendering="crispEdges"/><rect fill="#1e1e1e" x="146.4" y="25.9" width="12.2" height="24.65" shape-rendering="crispEdges"/><rect fill="#1e1e1e" x="158.6" y="25.9" width="134.2" height="24.65" shape-rendering="crispEdges"/><rect fill="#1e1e1e" x="292.8" y="25.9" width="12.2" height="24.65" shape-rendering="crispEdges"/><rect fill="#1e1e1e" x="305" y="25.9" width="12.2" height="24.65" shape-rendering="crispEdges"/><rect fill="#1e1e1e" x="317.2" y="25.9" width="122" height="24.65" shape-rendering="crispEdges"/><rect fill="#1e1e1e" x="439.2" y="25.9" width="12.2" height="24.65" shape-rendering="crispEdges"/><rect fill="#1e1e1e" x="451.4" y="25.9" width="768.6" height="24.65" shape-rendering="crispEdges"/><rect fill="#1e1e1e" x="0" y="50.3" width="12.2" height="24.65" shape-rendering="crispEdges"/><rect fill="#1e1e1e" x="12.2" y="50.3" width="122" height="24.65" shape-rendering="crispEdges"/><rect fill="#1e1e1e" x="134.2" y="50.3" width="12.2" height="24.65" shape-rendering="crispEdges"/><rect fill="#1e1e1e" x="146.4" y="50.3" width="1073.6" height="24.65" shape-rendering="crispEdges"/><rect fill="#1e1e1e" x="0" y="74.7" width="1220" height="24.65" shape-rendering="crispEdges"/><rect fill="#1e1e1e" x="0" y="99.1" width="12.2" height="24.65" shape-rendering="crispEdges"/><rect fill="#0c7dd4" x="12.2" y="99.1" width="305" height="24.65" shape-rendering="crispEdges"/><rect fill="#0c7dd4" x="317.2" y="99.1" width="170.8" height="24.65" shape-rendering="crispEdges"/><rect fill="#0c7dd4" x="488" y="99.1" width="97.6" height="24.65" shape-rendering="crispEdges"/><rect fill="#0c7dd4" x="585.6" y="99.1" width="195.2" height="24.65" shape-rendering="crispEdges"/><rect fill="#0c7dd4" x="780.8" y="99.1" width="427" height="24.65" shape-rendering="crispEdges"/><rect fill="#1e1e1e" x="1207.8" y="99.1" width="12.2" height="24.65" shape-rendering="crispEdges"/><rect fill="#1e1e1e" x="0" y="123.5" width="12.2" height="24.65" shape-rendering="crispEdges"/><rect fill="#0178d4" x="12.2" y="123.5" width="305" height="24.65" shape-rendering="crispEdges"/><rect fill="#0178d4" x="317.2" y="123.5" width="170.8" height="24.65" shape-rendering="crispEdges"/><rect fill="#0178d4" x="488" y="123.5" width="97.6" height="24.65" shape-rendering="crispEdges"/><rect fill="#0178d4" x="585.6" y="123.5" width="195.2" height="24.65" shape-rendering="crispEdges"/><rect fill="#0178d4" x="780.8" y="123.5" width="427" height="24.65" shape-rendering="crispEdges"/><rect fill="#1e1e1e" x="1207.8" y="123.5" width="12.2" height="24.65" shape-rendering="crispEdges"/><rect fill="#1e1e1e" x="0" y="147.9" width="12.2" height="24.65" shape-rendering="crispEdges"/><rect fill="#272727" x="12.2" y="147.9" width="305" height="24.65" shape-rendering="crispEdges"/><rect fill="#272727" x="317.2" y="147.9" width="170.8" height="24.65" shape-rendering="crispEdges"/><rect fill="#272727" x="488" y="147.9" width="97.6" height="24.65" shape-rendering="crispEdges"/><rect fill="#272727" x="585.6" y="147.9" width="195.2" height="24.65" shape-rendering="crispEdges"/><rect fill="#272727" x="780.8" y="147.9" width="427" height="24.65" shape-rendering="crispEdges"/><rect fill="#1e1e1e" x="1207.8" y="147.9" width="12.2" height="24.65" shape-rendering="crispEdges"/><rect fill="#1e1e1e" x="0" y="172.3" width="12.2" height="24.65" shape-rendering="crispEdges"/><rect fill="#272727" x="12.2" y="172.3" width="305" height="24.65" shape-rendering="crispEdges"/><rect fill="#272727" x="317.2" y="172.3" width="170.8" height="24.65" shape-rendering="crispEdges"/><rect fill="#272727" x="488" y="172.3" width="97.6" height="24.65" shape-rendering="crispEdges"/><rect fill="#272727" x="585.6" y="172.3" width="195.2" height="24.65" shape-rendering="crispEdges"/><rect fill="#272727" x="780.8" y="172.3" width="427" height="24.65" shape-rendering="crispEdges"/><rect fill="#1e1e1e" x="1207.8" y="172.3" width="12.2" height="24.65" shape-rendering="crispEdges"/><rect fill="#1e1e1e" x="0" y="196.7" width="12.2" height="24.65" shape-rendering="crispEdges"/><rect fill="#272727" x="12.2" y="196.7" width="305" height="24.65" shape-rendering="crispEdges"/><rect fill="#272727" x="317.2" y="196.7" width="170.8" height="24.65" shape-rendering="crispEdges"/><rect fill="#272727" x="488" y="196.7" width="97.6" height="24.65" shape-rendering="crispEdges"/><rect fill="#272727" x="585.6" y="196.7" width="195.2" height="24.65" shape-rendering="crispEdges"/><rect fill="#272727" x="780.8" y="196.7" width="427" height="24.65" shape-rendering="crispEdges"/><rect fill="#1e1e1e" x="1207.8" y="196.7" width="12.2" height="24.65" shape-rendering="crispEdges"/><rect fill="#1e1e1e" x="0" y="221.1" width="12.2" height="24.65" shape-rendering="crispEdges"/><rect fill="#272727" x="12.2" y="221.1" width="305" height="24.65" shape-rendering="crispEdges"/><rect fill="#272727" x="317.2" y="221.1" width="170.8" height="24.65" shape-rendering="crispEdges"/><rect fill="#272727" x="488" y="221.1" width="97.6" height="24.65" shape-rendering="crispEdges"/><rect fill="#272727" x="585.6" y="221.1" width="195.2" height="24.65" shape-rendering="crispEdges"/><rect fill="#272727" x="780.8" y="221.1" width="427" height="24.65" shape-rendering="crispEdges"/><rect fill="#1e1e1e" x="1207.8" y="221.1" width="12.2" height="24.65" shape-rendering="crispEdges"/><rect fill="#1e1e1e" x="0" y="245.5" width="12.2" height="24.65" shape-rendering="crispEdges"/><rect fill="#272727" x="12.2" y="245.5" width="305" height="24.65" shape-rendering="crispEdges"/><rect fill="#272727" x="317.2" y="245.5" width="170.8" height="24.65" shape-rendering="crispEdges"/><rect fill="#272727" x="488" y="245.5" width="97.6" height="24.65" shape-rendering="crispEdges"/><rect fill="#272727" x="585.6" y="245.5" width="195.2" height="24.65" shape-rendering="crispEdges"/><rect fill="#272727" x="780.8" y="245.5" width="427" height="24.65" shape-rendering="crispEdges"/><rect fill="#1e1e1e" x="1207.8" y="245.5" width="12.2" height="24.65" shape-rendering="crispEdges"/><rect fill="#1e1e1e" x="0" y="269.9" width="12.2" height="24.65" shape-rendering="crispEdges"/><rect fill="#272727" x="12.2" y="269.9" width="305" height="24.65" shape-rendering="crispEdges"/><rect fill="#272727" x="317.2" y="269.9" width="170.8" height="24.65" shape-rendering="crispEdges"/><rect fill="#272727" x="488" y="269.9" width="97.6" height="24.65" shape-rendering="crispEdges"/><rect fill="#272727" x="585.6" y="269.9" width="195.2" height="24.65" shape-rendering="crispEdges"/><rect fill="#272727" x="780.8" y="269.9" width="427" height="24.65" shape-rendering="crispEdges"/><rect fill="#1e1e1e" x="1207.8" y="269.9" width="12.2" height="24.65" shape-rendering="crispEdges"/><rect fill="#1e1e1e" x="0" y="294.3" width="12.2" height="24.65" shape-rendering="crispEdges"/><rect fill="#272727" x="12.2" y="294.3" width="305" height="24.65" shape-rendering="crispEdges"/><rect fill="#272727" x="317.2" y="294.3" width="170.8" height="24.65" shape-rendering="crispEdges"/><rect fill="#272727" x="488" y="294.3" width="97.6" height="24.65" shape-rendering="crispEdges"/><rect fill="#272727" x="585.6" y="294.3" width="195.2" height="24.65" shape-rendering="crispEdges"/><rect fill="#272727" x="780.8" y="294.3" width="427" height="24.65" shape-rendering="crispEdges"/><rect fill="#1e1e1e" x="1207.8" y="294.3" width="12.2" height="24.65" shape-rendering="crispEdges"/><rect fill="#1e1e1e" x="0" y="318.7" width="12.2" height="24.65" shape-rendering="crispEdges"/><rect fill="#272727" x="12.2" y="318.7" width="305" height="24.65" shape-rendering="crispEdges"/><rect fill="#272727" x="317.2" y="318.7" width="170.8" height="24.65" shape-rendering="crispEdges"/><rect fill="#272727" x="488" y="318.7" width="97.6" height="24.65" shape-rendering="crispEdges"/><rect fill="#272727" x="585.6" y="318.7" width="195.2" height="24.65" shape-rendering="crispEdges"/><rect fill="#272727" x="780.8" y="318.7" width="427" height="24.65" shape-rendering="crispEdges"/><rect fill="#1e1e1e" x="1207.8" y="318.7" width="12.2" height="24.65" shape-rendering="crispEdges"/><rect fill="#1e1e1e" x="0" y="343.1" width="12.2" height="24.65" shape-rendering="crispEdges"/><rect fill="#272727" x="12.2" y="343.1" width="305" height="24.65" shape-rendering="crispEdges"/><rect fill="#272727" x="317.2" y="343.1" width="170.8" height="24.65" shape-rendering="crispEdges"/><rect fill="#272727" x="488" y="343.1" width="97.6" height="24.65" shape-rendering="crispEdges"/><rect fill="#272727" x="585.6" y="343.1" width="195.2" height="24.65" shape-rendering="crispEdges"/><rect fill="#272727" x="780.8" y="343.1" width="427" height="24.65" shape-rendering="crispEdges"/><rect fill="#1e1e1e" x="1207.8" y="343.1" width="12.2" height="24.65" shape-rendering="crispEdges"/><rect fill="#1e1e1e" x="0" y="367.5" width="12.2" height="24.65" shape-rendering="crispEdges"/><rect fill="#272727" x="12.2" y="367.5" width="305" height="24.65" shape-rendering="crispEdges"/><rect fill="#272727" x="317.2" y="367.5" width="170.8" height="24.65" shape-rendering="crispEdges"/><rect fill="#272727" x="488" y="367.5" width="97.6" height="24.65" shape-rendering="crispEdges"/><rect fill="#272727" x="585.6" y="367.5" width="195.2" height="24.65" shape-rendering="crispEdges"/><rect fill="#272727" x="780.8" y="367.5" width="427" height="24.65" shape-rendering="crispEdges"/><rect fill="#1e1e1e" x="1207.8" y="367.5" width="12.2" height="24.65" shape-rendering="crispEdges"/><rect fill="#1e1e1e" x="0" y="391.9" width="12.2" height="24.65" shape-rendering="crispEdges"/><rect fill="#272727" x="12.2" y="391.9" width="305" height="24.65" shape-rendering="crispEdges"/><rect fill="#272727" x="317.2" y="391.9" width="170.8" height="24.65" shape-rendering="crispEdges"/><rect fill="#272727" x="488" y="391.9" width="97.6" height="24.65" shape-rendering="crispEdges"/><rect fill="#272727" x="585.6" y="391.9" width="195.2" height="24.65" shape-rendering="crispEdges"/><rect fill="#272727" x="780.8" y="391.9" width="427" height="24.65" shape-rendering="crispEdges"/><rect fill="#1e1e1e" x="1207.8" y="391.9" width="12.2" height="24.65" shape-rendering="crispEdges"/><rect fill="#1e1e1e" x="0" y="416.3" width="12.2" height="24.65" shape-rendering="crispEdges"/><rect fill="#272727" x="12.2" y="416.3" width="305" height="24.65" shape-rendering="crispEdges"/><rect fill="#272727" x="317.2" y="416.3" width="170.8" height="24.65" shape-rendering="crispEdges"/><rect fill="#272727" x="488" y="416.3" width="97.6" height="24.65" shape-rendering="crispEdges"/><rect fill="#272727" x="585.6" y="416.3" width="195.2" height="24.65" shape-rendering="crispEdges"/><rect fill="#272727" x="780.8" y="416.3" width="427" height="24.65" shape-rendering="crispEdges"/><rect fill="#1e1e1e" x="1207.8" y="416.3" width="12.2" height="24.65" shape-rendering="crispEdges"/><rect fill="#1e1e1e" x="0" y="440.7" width="12.2" height="24.65" shape-rendering="crispEdges"/><rect fill="#272727" x="12.2" y="440.7" width="305" height="24.65" shape-rendering="crispEdges"/><rect fill="#272727" x="317.2" y="440.7" width="170.8" height="24.65" shape-rendering="crispEdges"/><rect fill="#272727" x="488" y="440.7" width="97.6" height="24.65" shape-rendering="crispEdges"/><rect fill="#272727" x="585.6" y="440.7" width="195.2" height="24.65" shape-rendering="crispEdges"/><rect fill="#272727" x="780.8" y="440.7" width="427" height="24.65" shape-rendering="crispEdges"/><rect fill="#1e1e1e" x="1207.8" y="440.7" width="12.2" height="24.65" shape-rendering="crispEdges"/><rect fill="#1e1e1e" x="0" y="465.1" width="12.2" height="24.65" shape-rendering="crispEdges"/><rect fill="#272727" x="12.2" y="465.1" width="305" height="24.65" shape-rendering="crispEdges"/><rect fill="#272727" x="317.2" y="465.1" width="170.8" height="24.65" shape-rendering="crispEdges"/><rect fill="#272727" x="488" y="465.1" width="97.6" height="24.65" shape-rendering="crispEdges"/><rect fill="#272727" x="585.6" y="465.1" width="195.2" height="24.65" shape-rendering="crispEdges"/><rect fill="#272727" x="780.8" y="465.1" width="427" height="24.65" shape-rendering="crispEdges"/><rect fill="#1e1e1e" x="1207.8" y="465.1" width="12.2" height="24.65" shape-rendering="crispEdges"/><rect fill="#1e1e1e" x="0" y="489.5" width="12.2" height="24.65" shape-rendering="crispEdges"/><rect fill="#272727" x="12.2" y="489.5" width="305" height="24.65" shape-rendering="crispEdges"/><rect fill="#272727" x="317.2" y="489.5" width="170.8" height="24.65" shape-rendering="crispEdges"/><rect fill="#272727" x="488" y="489.5" width="97.6" height="24.65" shape-rendering="crispEdges"/><rect fill="#272727" x="585.6" y="489.5" width="195.2" height="24.65" shape-rendering="crispEdges"/><rect fill="#272727" x="780.8" y="489.5" width="427" height="24.65" shape-rendering="crispEdges"/><rect fill="#1e1e1e" x="1207.8" y="489.5" width="12.2" height="24.65" shape-rendering="crispEdges"/><rect fill="#1e1e1e" x="0" y="513.9" width="12.2" height="24.65" shape-rendering="crispEdges"/><rect fill="#272727" x="12.2" y="513.9" width="305" height="24.65" shape-rendering="crispEdges"/><rect fill="#272727" x="317.2" y="513.9" width="170.8" height="24.65" shape-rendering="crispEdges"/><rect fill="#272727" x="488" y="513.9" width="97.6" height="24.65" shape-rendering="crispEdges"/><rect fill="#272727" x="585.6" y="513.9" width="195.2" height="24.65" shape-rendering="crispEdges"/><rect fill="#272727" x="780.8" y="513.9" width="427" height="24.65" shape-rendering="crispEdges"/><rect fill="#1e1e1e" x="1207.8" y="513.9" width="12.2" height="24.65" shape-rendering="crispEdges"/><rect fill="#1e1e1e" x="0" y="538.3" width="12.2" height="24.65" shape-rendering="crispEdges"/><rect fill="#272727" x="12.2" y="538.3" width="1195.6" height="24.65" shape-rendering="crispEdges"/><rect fill="#1e1e1e" x="1207.8" y="538.3" width="12.2" height="24.65" shape-rendering="crispEdges"/><rect fill="#1e1e1e" x="0" y="562.7" width="12.2" height="24.65" shape-rendering="crispEdges"/><rect fill="#272727" x="12.2" y="562.7" width="1195.6" height="24.65" shape-rendering="crispEdges"/><rect fill="#1e1e1e" x="1207.8" y="562.7" width="12.2" height="24.65" shape-rendering="crispEdges"/><rect fill="#1e1e1e" x="0" y="587.1" width="12.2" height="24.65" shape-rendering="crispEdges"/><rect fill="#1e1e1e" x="12.2" y="587.1" width="1195.6" height="24.65" shape-rendering="crispEdges"/><rect fill="#1e1e1e" x="1207.8" y="587.1" width="12.2" height="24.65" shape-rendering="crispEdges"/><rect fill="#1e1e1e" x="0" y="611.5" width="12.2" height="24.65" shape-rendering="crispEdges"/><rect fill="#1e1e1e" x="12.2" y="611.5" width="109.8" height="24.65" shape-rendering="crispEdges"/><rect fill="#1e1e1e" x="122" y="611.5" width="1085.8" height="24.65" shape-rendering="crispEdges"/><rect fill="#1e1e1e" x="1207.8" y="611.5" width="12.2" height="24.65" shape-rendering="crispEdges"/><rect fill="#1e1e1e" x="0" y="635.9" width="1220" height="24.65" shape-rendering="crispEdges"/><rect fill="#242f38" x="0" y="660.3" width="36.6" height="24.65" shape-rendering="crispEdges"/><rect fill="#242f38" x="36.6" y="660.3" width="97.6" height="24.65" shape-rendering="crispEdges"/><rect fill="#242f38" x="134.2" y="660.3" width="36.6" height="24.65" shape-rendering="crispEdges"/><rect fill="#242f38" x="170.8" y="660.3" width="85.4" height="24.65" shape-rendering="crispEdges"/><rect fill="#242f38" x="256.2" y="660.3" width="36.6" height="24.65" shape-rendering="crispEdges"/><rect fill="#242f38" x="292.8" y="660.3" width="85.4" height="24.65" shape-rendering="crispEdges"/><rect fill="#242f38" x="378.2" y="660.3" width="36.6" height="24.65" shape-rendering="crispEdges"/><rect fill="#242f38" x="414.8" y="660.3" width="97.6" height="24.65" shape-rendering="crispEdges"/><rect fill="#242f38" x="512.4" y="660.3" width="36.6" height="24.65" shape-rendering="crispEdges"/><rect fill="#242f38" x="549" y="660.3" width="85.4" height="24.65" shape-rendering="crispEdges"/><rect fill="#242f38" x="634.4" y="660.3" width="36.6" height="24.65" shape-rendering="crispEdges"/><rect fill="#242f38" x="671" y="660.3" width="61" height="24.65" shape-rendering="crispEdges"/><rect fill="#242f38" x="732" y="660.3" width="341.6" height="24.65" shape-rendering="crispEdges"/><rect fill="#242f38" x="1073.6" y="660.3" width="12.2" height="24.65" shape-rendering="crispEdges"/><rect fill="#242f38" x="1085.8" y="660.3" width="24.4" height="24.65" shape-rendering="crispEdges"/><rect fill="#242f38" x="1110.2" y="660.3" width="97.6" height="24.65" shape-rendering="crispEdges"/><rect fill="#242f38" x="1207.8" y="660.3" width="12.2" height="24.65" shape-rendering="crispEdges"/>
    <g class="terminal-3725566902-matrix">
    <text class="terminal-3725566902-r2" x="12.2" y="20" textLength="12.2" clip-path="url(#terminal-3725566902-line-0)">⭘</text><text class="terminal-3725566902-r2" x="488" y="20" textLength="207.4" clip-path="url(#terminal-3725566902-line-0)">Ollama&#160;TUI&#160;v0.1.0</text><text class="terminal-3725566902-r1" x="1220" y="20" textLength="12.2" clip-path="url(#terminal-3725566902-line-0)">
</text><text class="terminal-3725566902-r2" x="12.2" y="44.4" textLength="122" clip-path="url(#terminal-3725566902-line-1)">Models&#160;[1]</text><text class="terminal-3725566902-r3" x="158.6" y="44.4" textLength="134.2" clip-path="url(#terminal-3725566902-line-1)">Running&#160;[2]</text><text class="terminal-3725566902-r3" x="317.2" y="44.4" textLength="122" clip-path="url(#terminal-3725566902-line-1)">Search&#160;[3]</text><text class="terminal-3725566902-r1" x="1220" y="44.4" textLength="12.2" clip-path="url(#terminal-3725566902-line-1)">
</text><text class="terminal-3725566902-r4" x="0" y="68.8" textLength="12.2" clip-path="url(#terminal-3725566902-line-2)">╸</text><text class="terminal-3725566902-r5" x="12.2" y="68.8" textLength="122" clip-path="url(#terminal-3725566902-line-2)">━━━━━━━━━━</text><text class="terminal-3725566902-r4" x="134.2" y="68.8" textLength="12.2" clip-path="url(#terminal-3725566902-line-2)">╺</text><text class="terminal-3725566902-r4" x="146.4" y="68.8" textLength="1073.6" clip-path="url(#terminal-3725566902-line-2)">━━━━━━━━━━━━━━━━━━━━━━━━━━━━━━━━━━━━━━━━━━━━━━━━━━━━━━━━━━━━━━━━━━━━━━━━━━━━━━━━━━━━━━━━</text><text class="terminal-3725566902-r1" x="1220" y="68.8" textLength="12.2" clip-path="url(#terminal-3725566902-line-2)">
</text><text class="terminal-3725566902-r1" x="1220" y="93.2" textLength="12.2" clip-path="url(#terminal-3725566902-line-3)">
</text><text class="terminal-3725566902-r6" x="12.2" y="117.6" textLength="305" clip-path="url(#terminal-3725566902-line-4)">&#160;Name&#160;&#160;&#160;&#160;&#160;&#160;&#160;&#160;&#160;&#160;&#160;&#160;&#160;&#160;&#160;&#160;&#160;&#160;&#160;&#160;</text><text class="terminal-3725566902-r6" x="317.2" y="117.6" textLength="170.8" clip-path="url(#terminal-3725566902-line-4)">&#160;ID&#160;&#160;&#160;&#160;&#160;&#160;&#160;&#160;&#160;&#160;&#160;</text><text class="terminal-3725566902-r6" x="488" y="117.6" textLength="97.6" clip-path="url(#terminal-3725566902-line-4)">&#160;Size&#160;&#160;&#160;</text><text class="terminal-3725566902-r6" x="585.6" y="117.6" textLength="195.2" clip-path="url(#terminal-3725566902-line-4)">&#160;Modified&#160;&#160;&#160;&#160;&#160;&#160;&#160;</text><text class="terminal-3725566902-r1" x="1220" y="117.6" textLength="12.2" clip-path="url(#terminal-3725566902-line-4)">
</text><text class="terminal-3725566902-r7" x="12.2" y="142" textLength="305" clip-path="url(#terminal-3725566902-line-5)">&#160;ministral-3:3b&#160;&#160;&#160;&#160;&#160;&#160;&#160;&#160;&#160;&#160;</text><text class="terminal-3725566902-r7" x="317.2" y="142" textLength="170.8" clip-path="url(#terminal-3725566902-line-5)">&#160;f04aa1c738f6&#160;</text><text class="terminal-3725566902-r7" x="488" y="142" textLength="97.6" clip-path="url(#terminal-3725566902-line-5)">&#160;3.0&#160;GB&#160;</text><text class="terminal-3725566902-r7" x="585.6" y="142" textLength="195.2" clip-path="url(#terminal-3725566902-line-5)">&#160;17&#160;minutes&#160;ago&#160;</text><text class="terminal-3725566902-r1" x="1220" y="142" textLength="12.2" clip-path="url(#terminal-3725566902-line-5)">
</text><text class="terminal-3725566902-r2" x="12.2" y="166.4" textLength="305" clip-path="url(#terminal-3725566902-line-6)">&#160;qwen2.5:7b&#160;&#160;&#160;&#160;&#160;&#160;&#160;&#160;&#160;&#160;&#160;&#160;&#160;&#160;</text><text class="terminal-3725566902-r2" x="317.2" y="166.4" textLength="170.8" clip-path="url(#terminal-3725566902-line-6)">&#160;845dbda0ea48&#160;</text><text class="terminal-3725566902-r2" x="488" y="166.4" textLength="97.6" clip-path="url(#terminal-3725566902-line-6)">&#160;4.7&#160;GB&#160;</text><text class="terminal-3725566902-r2" x="585.6" y="166.4" textLength="195.2" clip-path="url(#terminal-3725566902-line-6)">&#160;7&#160;hours&#160;ago&#160;&#160;&#160;&#160;</text><text class="terminal-3725566902-r1" x="1220" y="166.4" textLength="12.2" clip-path="url(#terminal-3725566902-line-6)">
</text><text class="terminal-3725566902-r2" x="12.2" y="190.8" textLength="305" clip-path="url(#terminal-3725566902-line-7)">&#160;qwen2.5-coder:14b&#160;&#160;&#160;&#160;&#160;&#160;&#160;</text><text class="terminal-3725566902-r2" x="317.2" y="190.8" textLength="170.8" clip-path="url(#terminal-3725566902-line-7)">&#160;9ec8897f747e&#160;</text><text class="terminal-3725566902-r2" x="488" y="190.8" textLength="97.6" clip-path="url(#terminal-3725566902-line-7)">&#160;9.0&#160;GB&#160;</text><text class="terminal-3725566902-r2" x="585.6" y="190.8" textLength="195.2" clip-path="url(#terminal-3725566902-line-7)">&#160;12&#160;hours&#160;ago&#160;&#160;&#160;</text><text class="terminal-3725566902-r1" x="1220" y="190.8" textLength="12.2" clip-path="url(#terminal-3725566902-line-7)">
</text><text class="terminal-3725566902-r2" x="12.2" y="215.2" textLength="305" clip-path="url(#terminal-3725566902-line-8)">&#160;gemma3:latest&#160;&#160;&#160;&#160;&#160;&#160;&#160;&#160;&#160;&#160;&#160;</text><text class="terminal-3725566902-r2" x="317.2" y="215.2" textLength="170.8" clip-path="url(#terminal-3725566902-line-8)">&#160;a2af6cc3eb7f&#160;</text><text class="terminal-3725566902-r2" x="488" y="215.2" textLength="97.6" clip-path="url(#terminal-3725566902-line-8)">&#160;3.3&#160;GB&#160;</text><text class="terminal-3725566902-r2" x="585.6" y="215.2" textLength="195.2" clip-path="url(#terminal-3725566902-line-8)">&#160;14&#160;hours&#160;ago&#160;&#160;&#160;</text><text class="terminal-3725566902-r1" x="1220" y="215.2" textLength="12.2" clip-path="url(#terminal-3725566902-line-8)">
</text><text class="terminal-3725566902-r2" x="12.2" y="239.6" textLength="305" clip-path="url(#terminal-3725566902-line-9)">&#160;gemma2:2b&#160;&#160;&#160;&#160;&#160;&#160;&#160;&#160;&#160;&#160;&#160;&#160;&#160;&#160;&#160;</text><text class="terminal-3725566902-r2" x="317.2" y="239.6" textLength="170.8" clip-path="url(#terminal-3725566902-line-9)">&#160;8ccf136fdd52&#160;</text><text class="terminal-3725566902-r2" x="488" y="239.6" textLength="97.6" clip-path="url(#terminal-3725566902-line-9)">&#160;1.6&#160;GB&#160;</text><text class="terminal-3725566902-r2" x="585.6" y="239.6" textLength="195.2" clip-path="url(#terminal-3725566902-line-9)">&#160;14&#160;hours&#160;ago&#160;&#160;&#160;</text><text class="terminal-3725566902-r1" x="1220" y="239.6" textLength="12.2" clip-path="url(#terminal-3725566902-line-9)">
</text><text class="terminal-3725566902-r2" x="12.2" y="264" textLength="305" clip-path="url(#terminal-3725566902-line-10)">&#160;mistral:latest&#160;&#160;&#160;&#160;&#160;&#160;&#160;&#160;&#160;&#160;</text><text class="terminal-3725566902-r2" x="317.2" y="264" textLength="170.8" clip-path="url(#terminal-3725566902-line-10)">&#160;6577803aa9a0&#160;</text><text class="terminal-3725566902-r2" x="488" y="264" textLength="97.6" clip-path="url(#terminal-3725566902-line-10)">&#160;4.4&#160;GB&#160;</text><text class="terminal-3725566902-r2" x="585.6" y="264" textLength="195.2" clip-path="url(#terminal-3725566902-line-10)">&#160;25&#160;hours&#160;ago&#160;&#160;&#160;</text><text class="terminal-3725566902-r1" x="1220" y="264" textLength="12.2" clip-path="url(#terminal-3725566902-line-10)">
</text><text class="terminal-3725566902-r2" x="12.2" y="288.4" textLength="305" clip-path="url(#terminal-3725566902-line-11)">&#160;qwen3:4b&#160;&#160;&#160;&#160;&#160;&#160;&#160;&#160;&#160;&#160;&#160;&#160;&#160;&#160;&#160;&#160;</text><text class="terminal-3725566902-r2" x="317.2" y="288.4" textLength="170.8" clip-path="url(#terminal-3725566902-line-11)">&#160;359d7dd4bcda&#160;</text><text class="terminal-3725566902-r2" x="488" y="288.4" textLength="97.6" clip-path="url(#terminal-3725566902-line-11)">&#160;2.5&#160;GB&#160;</text><text class="terminal-3725566902-r2" x="585.6" y="288.4" textLength="195.2" clip-path="url(#terminal-3725566902-line-11)">&#160;3&#160;days&#160;ago&#160;&#160;&#160;&#160;&#160;</text><text class="terminal-3725566902-r1" x="1220" y="288.4" textLength="12.2" clip-path="url(#terminal-3725566902-line-11)">
</text><text class="terminal-3725566902-r2" x="12.2" y="312.8" textLength="305" clip-path="url(#terminal-3725566902-line-12)">&#160;llava:7b&#160;&#160;&#160;&#160;&#160;&#160;&#160;&#160;&#160;&#160;&#160;&#160;&#160;&#160;&#160;&#160;</text><text class="terminal-3725566902-r2" x="317.2" y="312.8" textLength="170.8" clip-path="url(#terminal-3725566902-line-12)">&#160;8dd30f6b0cb1&#160;</text><text class="terminal-3725566902-r2" x="488" y="312.8" textLength="97.6" clip-path="url(#terminal-3725566902-line-12)">&#160;4.7&#160;GB&#160;</text><text class="terminal-3725566902-r2" x="585.6" y="312.8" textLength="195.2" clip-path="url(#terminal-3725566902-line-12)">&#160;12&#160;days&#160;ago&#160;&#160;&#160;&#160;</text><text class="terminal-3725566902-r1" x="1220" y="312.8" textLength="12.2" clip-path="url(#terminal-3725566902-line-12)">
</text><text class="terminal-3725566902-r2" x="12.2" y="337.2" textLength="305" clip-path="url(#terminal-3725566902-line-13)">&#160;qwen2.5:3b-instruct&#160;&#160;&#160;&#160;&#160;</text><text class="terminal-3725566902-r2" x="317.2" y="337.2" textLength="170.8" clip-path="url(#terminal-3725566902-line-13)">&#160;357c53fb659c&#160;</text><text class="terminal-3725566902-r2" x="488" y="337.2" textLength="97.6" clip-path="url(#terminal-3725566902-line-13)">&#160;1.9&#160;GB&#160;</text><text class="terminal-3725566902-r2" x="585.6" y="337.2" textLength="195.2" clip-path="url(#terminal-3725566902-line-13)">&#160;12&#160;days&#160;ago&#160;&#160;&#160;&#160;</text><text class="terminal-3725566902-r1" x="1220" y="337.2" textLength="12.2" clip-path="url(#terminal-3725566902-line-13)">
</text><text class="terminal-3725566902-r2" x="12.2" y="361.6" textLength="305" clip-path="url(#terminal-3725566902-line-14)">&#160;moondream:latest&#160;&#160;&#160;&#160;&#160;&#160;&#160;&#160;</text><text class="terminal-3725566902-r2" x="317.2" y="361.6" textLength="170.8" clip-path="url(#terminal-3725566902-line-14)">&#160;55fc3abd3867&#160;</text><text class="terminal-3725566902-r2" x="488" y="361.6" textLength="97.6" clip-path="url(#terminal-3725566902-line-14)">&#160;1.7&#160;GB&#160;</text><text class="terminal-3725566902-r2" x="585.6" y="361.6" textLength="195.2" clip-path="url(#terminal-3725566902-line-14)">&#160;12&#160;days&#160;ago&#160;&#160;&#160;&#160;</text><text class="terminal-3725566902-r1" x="1220" y="361.6" textLength="12.2" clip-path="url(#terminal-3725566902-line-14)">
</text><text class="terminal-3725566902-r2" x="12.2" y="386" textLength="305" clip-path="url(#terminal-3725566902-line-15)">&#160;devstral-small-2:latest&#160;</text><text class="terminal-3725566902-r2" x="317.2" y="386" textLength="170.8" clip-path="url(#terminal-3725566902-line-15)">&#160;24277f07f62d&#160;</text><text class="terminal-3725566902-r2" x="488" y="386" textLength="97.6" clip-path="url(#terminal-3725566902-line-15)">&#160;15&#160;GB&#160;&#160;</text><text class="terminal-3725566902-r2" x="585.6" y="386" textLength="195.2" clip-path="url(#terminal-3725566902-line-15)">&#160;6&#160;weeks&#160;ago&#160;&#160;&#160;&#160;</text><text class="terminal-3725566902-r1" x="1220" y="386" textLength="12.2" clip-path="url(#terminal-3725566902-line-15)">
</text><text class="terminal-3725566902-r2" x="12.2" y="410.4" textLength="305" clip-path="url(#terminal-3725566902-line-16)">&#160;mistral-small:24b&#160;&#160;&#160;&#160;&#160;&#160;&#160;</text><text class="terminal-3725566902-r2" x="317.2" y="410.4" textLength="170.8" clip-path="url(#terminal-3725566902-line-16)">&#160;8039dd90c113&#160;</text><text class="terminal-3725566902-r2" x="488" y="410.4" textLength="97.6" clip-path="url(#terminal-3725566902-line-16)">&#160;14&#160;GB&#160;&#160;</text><text class="terminal-3725566902-r2" x="585.6" y="410.4" textLength="195.2" clip-path="url(#terminal-3725566902-line-16)">&#160;10&#160;months&#160;ago&#160;&#160;</text><text class="terminal-3725566902-r1" x="1220" y="410.4" textLength="12.2" clip-path="url(#terminal-3725566902-line-16)">
</text><text class="terminal-3725566902-r2" x="12.2" y="434.8" textLength="305" clip-path="url(#terminal-3725566902-line-17)">&#160;deepseek-coder:6.7b&#160;&#160;&#160;&#160;&#160;</text><text class="terminal-3725566902-r2" x="317.2" y="434.8" textLength="170.8" clip-path="url(#terminal-3725566902-line-17)">&#160;ce298d984115&#160;</text><text class="terminal-3725566902-r2" x="488" y="434.8" textLength="97.6" clip-path="url(#terminal-3725566902-line-17)">&#160;3.8&#160;GB&#160;</text><text class="terminal-3725566902-r2" x="585.6" y="434.8" textLength="195.2" clip-path="url(#terminal-3725566902-line-17)">&#160;10&#160;months&#160;ago&#160;&#160;</text><text class="terminal-3725566902-r1" x="1220" y="434.8" textLength="12.2" clip-path="url(#terminal-3725566902-line-17)">
</text><text class="terminal-3725566902-r2" x="12.2" y="459.2" textLength="305" clip-path="url(#terminal-3725566902-line-18)">&#160;gemma3:1b&#160;&#160;&#160;&#160;&#160;&#160;&#160;&#160;&#160;&#160;&#160;&#160;&#160;&#160;&#160;</text><text class="terminal-3725566902-r2" x="317.2" y="459.2" textLength="170.8" clip-path="url(#terminal-3725566902-line-18)">&#160;2d27a774bc62&#160;</text><text class="terminal-3725566902-r2" x="488" y="459.2" textLength="97.6" clip-path="url(#terminal-3725566902-line-18)">&#160;815&#160;MB&#160;</text><text class="terminal-3725566902-r2" x="585.6" y="459.2" textLength="195.2" clip-path="url(#terminal-3725566902-line-18)">&#160;10&#160;months&#160;ago&#160;&#160;</text><text class="terminal-3725566902-r1" x="1220" y="459.2" textLength="12.2" clip-path="url(#terminal-3725566902-line-18)">
</text><text class="terminal-3725566902-r2" x="12.2" y="483.6" textLength="305" clip-path="url(#terminal-3725566902-line-19)">&#160;qwen2.5-coder:7b&#160;&#160;&#160;&#160;&#160;&#160;&#160;&#160;</text><text class="terminal-3725566902-r2" x="317.2" y="483.6" textLength="170.8" clip-path="url(#terminal-3725566902-line-19)">&#160;2b0496514337&#160;</text><text class="terminal-3725566902-r2" x="488" y="483.6" textLength="97.6" clip-path="url(#terminal-3725566902-line-19)">&#160;4.7&#160;GB&#160;</text><text class="terminal-3725566902-r2" x="585.6" y="483.6" textLength="195.2" clip-path="url(#terminal-3725566902-line-19)">&#160;11&#160;months&#160;ago&#160;&#160;</text><text class="terminal-3725566902-r1" x="1220" y="483.6" textLength="12.2" clip-path="url(#terminal-3725566902-line-19)">
</text><text class="terminal-3725566902-r2" x="12.2" y="508" textLength="305" clip-path="url(#terminal-3725566902-line-20)">&#160;gemma2:27b&#160;&#160;&#160;&#160;&#160;&#160;&#160;&#160;&#160;&#160;&#160;&#160;&#160;&#160;</text><text class="terminal-3725566902-r2" x="317.2" y="508" textLength="170.8" clip-path="url(#terminal-3725566902-line-20)">&#160;53261bc9c192&#160;</text><text class="terminal-3725566902-r2" x="488" y="508" textLength="97.6" clip-path="url(#terminal-3725566902-line-20)">&#160;15&#160;GB&#160;&#160;</text><text class="terminal-3725566902-r2" x="585.6" y="508" textLength="195.2" clip-path="url(#terminal-3725566902-line-20)">&#160;11&#160;months&#160;ago&#160;&#160;</text><text class="terminal-3725566902-r1" x="1220" y="508" textLength="12.2" clip-path="url(#terminal-3725566902-line-20)">
</text><text class="terminal-3725566902-r2" x="12.2" y="532.4" textLength="305" clip-path="url(#terminal-3725566902-line-21)">&#160;deepseek-r1:latest&#160;&#160;&#160;&#160;&#160;&#160;</text><text class="terminal-3725566902-r2" x="317.2" y="532.4" textLength="170.8" clip-path="url(#terminal-3725566902-line-21)">&#160;0a8c26691023&#160;</text><text class="terminal-3725566902-r2" x="488" y="532.4" textLength="97.6" clip-path="url(#terminal-3725566902-line-21)">&#160;4.7&#160;GB&#160;</text><text class="terminal-3725566902-r2" x="585.6" y="532.4" textLength="195.2" clip-path="url(#terminal-3725566902-line-21)">&#160;11&#160;months&#160;ago&#160;&#160;</text><text class="terminal-3725566902-r1" x="1220" y="532.4" textLength="12.2" clip-path="url(#terminal-3725566902-line-21)">
</text><text class="terminal-3725566902-r1" x="1220" y="556.8" textLength="12.2" clip-path="url(#terminal-3725566902-line-22)">
</text><text class="terminal-3725566902-r1" x="1220" y="581.2" textLength="12.2" clip-path="url(#terminal-3725566902-line-23)">
</text><text class="terminal-3725566902-r1" x="1220" y="605.6" textLength="12.2" clip-path="url(#terminal-3725566902-line-24)">
</text><text class="terminal-3725566902-r8" x="12.2" y="630" textLength="109.8" clip-path="url(#terminal-3725566902-line-25)">17&#160;models</text><text class="terminal-3725566902-r1" x="1220" y="630" textLength="12.2" clip-path="url(#terminal-3725566902-line-25)">
</text><text class="terminal-3725566902-r1" x="1220" y="654.4" textLength="12.2" clip-path="url(#terminal-3725566902-line-26)">
</text><text class="terminal-3725566902-r9" x="0" y="678.8" textLength="36.6" clip-path="url(#terminal-3725566902-line-27)">&#160;r&#160;</text><text class="terminal-3725566902-r2" x="36.6" y="678.8" textLength="97.6" clip-path="url(#terminal-3725566902-line-27)">Refresh&#160;</text><text class="terminal-3725566902-r9" x="134.2" y="678.8" textLength="36.6" clip-path="url(#terminal-3725566902-line-27)">&#160;d&#160;</text><text class="terminal-3725566902-r2" x="170.8" y="678.8" textLength="85.4" clip-path="url(#terminal-3725566902-line-27)">Delete&#160;</text><text class="terminal-3725566902-r9" x="256.2" y="678.8" textLength="36.6" clip-path="url(#terminal-3725566902-line-27)">&#160;1&#160;</text><text class="terminal-3725566902-r2" x="292.8" y="678.8" textLength="85.4" clip-path="url(#terminal-3725566902-line-27)">Models&#160;</text><text class="terminal-3725566902-r9" x="378.2" y="678.8" textLength="36.6" clip-path="url(#terminal-3725566902-line-27)">&#160;2&#160;</text><text class="terminal-3725566902-r2" x="414.8" y="678.8" textLength="97.6" clip-path="url(#terminal-3725566902-line-27)">Running&#160;</text><text class="terminal-3725566902-r9" x="512.4" y="678.8" textLength="36.6" clip-path="url(#terminal-3725566902-line-27)">&#160;3&#160;</text><text class="terminal-3725566902-r2" x="549" y="678.8" textLength="85.4" clip-path="url(#terminal-3725566902-line-27)">Search&#160;</text><text class="terminal-3725566902-r9" x="634.4" y="678.8" textLength="36.6" clip-path="url(#terminal-3725566902-line-27)">&#160;q&#160;</text><text class="terminal-3725566902-r2" x="671" y="678.8" textLength="61" clip-path="url(#terminal-3725566902-line-27)">Quit&#160;</text><text class="terminal-3725566902-r10" x="1073.6" y="678.8" textLength="12.2" clip-path="url(#terminal-3725566902-line-27)">▏</text><text class="terminal-3725566902-r9" x="1085.8" y="678.8" textLength="24.4" clip-path="url(#terminal-3725566902-line-27)">^p</text><text class="terminal-3725566902-r2" x="1110.2" y="678.8" textLength="97.6" clip-path="url(#terminal-3725566902-line-27)">&#160;palette</text>
    </g>
    </g>
</svg>
