<svg class="rich-terminal" viewBox="0 0 1238 733.1999999999999" xmlns="http://www.w3.org/2000/svg">
    <!-- Generated with Rich https://www.textualize.io -->
    <style>

    @font-face {
        font-family: "Fira Code";
        src: local("FiraCode-Regular"),
                url("https://cdnjs.cloudflare.com/ajax/libs/firacode/6.2.0/woff2/FiraCode-Regular.woff2") format("woff2"),
                url("https://cdnjs.cloudflare.com/ajax/libs/firacode/6.2.0/woff/FiraCode-Regular.woff") format("woff");
        font-style: normal;
        font-weight: 400;
    }
    @font-face {
        font-family: "Fira Code";
        src: local("FiraCode-Bold"),
                url("https://cdnjs.cloudflare.com/ajax/libs/firacode/6.2.0/woff2/FiraCode-Bold.woff2") format("woff2"),
                url("https://cdnjs.cloudflare.com/ajax/libs/firacode/6.2.0/woff/FiraCode-Bold.woff") format("woff");
        font-style: bold;
        font-weight: 700;
    }

    .terminal-3423104911-matrix {
        font-family: Fira Code, monospace;
        font-size: 20px;
        line-height: 24.4px;
        font-variant-east-asian: full-width;
    }

    .terminal-3423104911-title {
        font-size: 18px;
        font-weight: bold;
        font-family: arial;
    }

    .terminal-3423104911-r1 { fill: #c5c8c6 }
.terminal-3423104911-r2 { fill: #e0e0e0 }
.terminal-3423104911-r3 { fill: #7f7f7f }
.terminal-3423104911-r4 { fill: #313131 }
.terminal-3423104911-r5 { fill: #0178d4 }
.terminal-3423104911-r6 { fill: #1e1e1e }
.terminal-3423104911-r7 { fill: #191919 }
.terminal-3423104911-r8 { fill: #737373 }
.terminal-3423104911-r9 { fill: #e0e0e0;font-weight: bold }
.terminal-3423104911-r10 { fill: #ddedf9;font-weight: bold }
.terminal-3423104911-r11 { fill: #a5a5a5 }
.terminal-3423104911-r12 { fill: #ffa62b;font-weight: bold }
.terminal-3423104911-r13 { fill: #495259 }
    </style>

    <defs>
    <clipPath id="terminal-3423104911-clip-terminal">
      <rect x="0" y="0" width="1219.0" height="682.1999999999999" />
    </clipPath>
    <clipPath id="terminal-3423104911-line-0">
    <rect x="0" y="1.5" width="1220" height="24.65"/>
            </clipPath>
<clipPath id="terminal-3423104911-line-1">
    <rect x="0" y="25.9" width="1220" height="24.65"/>
            </clipPath>
<clipPath id="terminal-3423104911-line-2">
    <rect x="0" y="50.3" width="1220" height="24.65"/>
            </clipPath>
<clipPath id="terminal-3423104911-line-3">
    <rect x="0" y="74.7" width="1220" height="24.65"/>
            </clipPath>
<clipPath id="terminal-3423104911-line-4">
    <rect x="0" y="99.1" width="1220" height="24.65"/>
            </clipPath>
<clipPath id="terminal-3423104911-line-5">
    <rect x="0" y="123.5" width="1220" height="24.65"/>
            </clipPath>
<clipPath id="terminal-3423104911-line-6">
    <rect x="0" y="147.9" width="1220" height="24.65"/>
            </clipPath>
<clipPath id="terminal-3423104911-line-7">
    <rect x="0" y="172.3" width="1220" height="24.65"/>
            </clipPath>
<clipPath id="terminal-3423104911-line-8">
    <rect x="0" y="196.7" width="1220" height="24.65"/>
            </clipPath>
<clipPath id="terminal-3423104911-line-9">
    <rect x="0" y="221.1" width="1220" height="24.65"/>
            </clipPath>
<clipPath id="terminal-3423104911-line-10">
    <rect x="0" y="245.5" width="1220" height="24.65"/>
            </clipPath>
<clipPath id="terminal-3423104911-line-11">
    <rect x="0" y="269.9" width="1220" height="24.65"/>
            </clipPath>
<clipPath id="terminal-3423104911-line-12">
    <rect x="0" y="294.3" width="1220" height="24.65"/>
            </clipPath>
<clipPath id="terminal-3423104911-line-13">
    <rect x="0" y="318.7" width="1220" height="24.65"/>
            </clipPath>
<clipPath id="terminal-3423104911-line-14">
    <rect x="0" y="343.1" width="1220" height="24.65"/>
            </clipPath>
<clipPath id="terminal-3423104911-line-15">
    <rect x="0" y="367.5" width="1220" height="24.65"/>
            </clipPath>
<clipPath id="terminal-3423104911-line-16">
    <rect x="0" y="391.9" width="1220" height="24.65"/>
            </clipPath>
<clipPath id="terminal-3423104911-line-17">
    <rect x="0" y="416.3" width="1220" height="24.65"/>
            </clipPath>
<clipPath id="terminal-3423104911-line-18">
    <rect x="0" y="440.7" width="1220" height="24.65"/>
            </clipPath>
<clipPath id="terminal-3423104911-line-19">
    <rect x="0" y="465.1" width="1220" height="24.65"/>
            </clipPath>
<clipPath id="terminal-3423104911-line-20">
    <rect x="0" y="489.5" width="1220" height="24.65"/>
            </clipPath>
<clipPath id="terminal-3423104911-line-21">
    <rect x="0" y="513.9" width="1220" height="24.65"/>
            </clipPath>
<clipPath id="terminal-3423104911-line-22">
    <rect x="0" y="538.3" width="1220" height="24.65"/>
            </clipPath>
<clipPath id="terminal-3423104911-line-23">
    <rect x="0" y="562.7" width="1220" height="24.65"/>
            </clipPath>
<clipPath id="terminal-3423104911-line-24">
    <rect x="0" y="587.1" width="1220" height="24.65"/>
            </clipPath>
<clipPath id="terminal-3423104911-line-25">
    <rect x="0" y="611.5" width="1220" height="24.65"/>
            </clipPath>
<clipPath id="terminal-3423104911-line-26">
    <rect x="0" y="635.9" width="1220" height="24.65"/>
            </clipPath>
    </defs>

    <rect fill="#292929" stroke="rgba(255,255,255,0.35)" stroke-width="1" x="1" y="1" width="1236" height="731.2" rx="8"/><text class="terminal-3423104911-title" fill="#c5c8c6" text-anchor="middle" x="618" y="27">Ollama&#160;TUI&#160;v0.1.0</text>
            <g transform="translate(26,22)">
            <circle cx="0" cy="0" r="7" fill="#ff5f57"/>
            <circle cx="22" cy="0" r="7" fill="#febc2e"/>
            <circle cx="44" cy="0" r="7" fill="#28c840"/>
            </g>
        
    <g transform="translate(9, 41)" clip-path="url(#terminal-3423104911-clip-terminal)">
    <rect fill="#242f38" x="0" y="1.5" width="12.2" height="24.65" shape-rendering="crispEdges"/><rect fill="#242f38" x="12.2" y="1.5" width="12.2" height="24.65" shape-rendering="crispEdges"/><rect fill="#242f38" x="24.4" y="1.5" width="61" height="24.65" shape-rendering="crispEdges"/><rect fill="#242f38" x="85.4" y="1.5" width="12.2" height="24.65" shape-rendering="crispEdges"/><rect fill="#242f38" x="97.6" y="1.5" width="390.4" height="24.65" shape-rendering="crispEdges"/><rect fill="#242f38" x="488" y="1.5" width="207.4" height="24.65" shape-rendering="crispEdges"/><rect fill="#242f38" x="695.4" y="1.5" width="402.6" height="24.65" shape-rendering="crispEdges"/><rect fill="#242f38" x="1098" y="1.5" width="12.2" height="24.65" shape-rendering="crispEdges"/><rect fill="#242f38" x="1110.2" y="1.5" width="0" height="24.65" shape-rendering="crispEdges"/><rect fill="#242f38" x="1110.2" y="1.5" width="97.6" height="24.65" shape-rendering="crispEdges"/><rect fill="#242f38" x="1207.8" y="1.5" width="12.2" height="24.65" shape-rendering="crispEdges"/><rect fill="#1e1e1e" x="0" y="25.9" width="12.2" height="24.65" shape-rendering="crispEdges"/><rect fill="#1e1e1e" x="12.2" y="25.9" width="122" height="24.65" shape-rendering="crispEdges"/><rect fill="#1e1e1e" x="134.2" y="25.9" width="12.2" height="24.65" shape-rendering="crispEdges"/><rect fill="#1e1e1e" x="146.4" y="25.9" width="12.2" height="24.65" shape-rendering="crispEdges"/><rect fill="#1e1e1e" x="158.6" y="25.9" width="134.2" height="24.65" shape-rendering="crispEdges"/><rect fill="#1e1e1e" x="292.8" y="25.9" width="12.2" height="24.65" shape-rendering="crispEdges"/><rect fill="#1e1e1e" x="305" y="25.9" width="12.2" height="24.65" shape-rendering="crispEdges"/><rect fill="#1e1e1e" x="317.2" y="25.9" width="122" height="24.65" shape-rendering="crispEdges"/><rect fill="#1e1e1e" x="439.2" y="25.9" width="12.2" height="24.65" shape-rendering="crispEdges"/><rect fill="#1e1e1e" x="451.4" y="25.9" width="768.6" height="24.65" shape-rendering="crispEdges"/><rect fill="#1e1e1e" x="0" y="50.3" width="305" height="24.65" shape-rendering="crispEdges"/><rect fill="#1e1e1e" x="305" y="50.3" width="12.2" height="24.65" shape-rendering="crispEdges"/><rect fill="#1e1e1e" x="317.2" y="50.3" width="122" height="24.65" shape-rendering="crispEdges"/><rect fill="#1e1e1e" x="439.2" y="50.3" width="12.2" height="24.65" shape-rendering="crispEdges"/><rect fill="#1e1e1e" x="451.4" y="50.3" width="768.6" height="24.65" shape-rendering="crispEdges"/><rect fill="#1e1e1e" x="0" y="74.7" width="1220" height="24.65" shape-rendering="crispEdges"/><rect fill="#1e1e1e" x="0" y="99.1" width="12.2" height="24.65" shape-rendering="crispEdges"/><rect fill="#191919" x="12.2" y="99.1" width="12.2" height="24.65" shape-rendering="crispEdges"/><rect fill="#1e1e1e" x="24.4" y="99.1" width="1171.2" height="24.65" shape-rendering="crispEdges"/><rect fill="#1e1e1e" x="1195.6" y="99.1" width="12.2" height="24.65" shape-rendering="crispEdges"/><rect fill="#1e1e1e" x="1207.8" y="99.1" width="12.2" height="24.65" shape-rendering="crispEdges"/><rect fill="#1e1e1e" x="0" y="123.5" width="12.2" height="24.65" shape-rendering="crispEdges"/><rect fill="#191919" x="12.2" y="123.5" width="12.2" height="24.65" shape-rendering="crispEdges"/><rect fill="#1e1e1e" x="24.4" y="123.5" width="24.4" height="24.65" shape-rendering="crispEdges"/><rect fill="#1e1e1e" x="48.8" y="123.5" width="341.6" height="24.65" shape-rendering="crispEdges"/><rect fill="#1e1e1e" x="390.4" y="123.5" width="780.8" height="24.65" shape-rendering="crispEdges"/><rect fill="#1e1e1e" x="1171.2" y="123.5" width="24.4" height="24.65" shape-rendering="crispEdges"/><rect fill="#1e1e1e" x="1195.6" y="123.5" width="12.2" height="24.65" shape-rendering="crispEdges"/><rect fill="#1e1e1e" x="1207.8" y="123.5" width="12.2" height="24.65" shape-rendering="crispEdges"/><rect fill="#1e1e1e" x="0" y="147.9" width="12.2" height="24.65" shape-rendering="crispEdges"/><rect fill="#191919" x="12.2" y="147.9" width="12.2" height="24.65" shape-rendering="crispEdges"/><rect fill="#1e1e1e" x="24.4" y="147.9" width="1171.2" height="24.65" shape-rendering="crispEdges"/><rect fill="#1e1e1e" x="1195.6" y="147.9" width="12.2" height="24.65" shape-rendering="crispEdges"/><rect fill="#1e1e1e" x="1207.8" y="147.9" width="12.2" height="24.65" shape-rendering="crispEdges"/><rect fill="#1e1e1e" x="0" y="172.3" width="12.2" height="24.65" shape-rendering="crispEdges"/><rect fill="#1e1e1e" x="12.2" y="172.3" width="1195.6" height="24.65" shape-rendering="crispEdges"/><rect fill="#1e1e1e" x="1207.8" y="172.3" width="12.2" height="24.65" shape-rendering="crispEdges"/><rect fill="#1e1e1e" x="0" y="196.7" width="12.2" height="24.65" shape-rendering="crispEdges"/><rect fill="#0c7dd4" x="12.2" y="196.7" width="292.8" height="24.65" shape-rendering="crispEdges"/><rect fill="#0c7dd4" x="305" y="196.7" width="122" height="24.65" shape-rendering="crispEdges"/><rect fill="#0c7dd4" x="427" y="196.7" width="146.4" height="24.65" shape-rendering="crispEdges"/><rect fill="#0c7dd4" x="573.4" y="196.7" width="634.4" height="24.65" shape-rendering="crispEdges"/><rect fill="#1e1e1e" x="1207.8" y="196.7" width="12.2" height="24.65" shape-rendering="crispEdges"/><rect fill="#1e1e1e" x="0" y="221.1" width="12.2" height="24.65" shape-rendering="crispEdges"/><rect fill="#0178d4" x="12.2" y="221.1" width="292.8" height="24.65" shape-rendering="crispEdges"/><rect fill="#0178d4" x="305" y="221.1" width="122" height="24.65" shape-rendering="crispEdges"/><rect fill="#0178d4" x="427" y="221.1" width="146.4" height="24.65" shape-rendering="crispEdges"/><rect fill="#0178d4" x="573.4" y="221.1" width="634.4" height="24.65" shape-rendering="crispEdges"/><rect fill="#1e1e1e" x="1207.8" y="221.1" width="12.2" height="24.65" shape-rendering="crispEdges"/><rect fill="#1e1e1e" x="0" y="245.5" width="12.2" height="24.65" shape-rendering="crispEdges"/><rect fill="#272727" x="12.2" y="245.5" width="292.8" height="24.65" shape-rendering="crispEdges"/><rect fill="#272727" x="305" y="245.5" width="122" height="24.65" shape-rendering="crispEdges"/><rect fill="#272727" x="427" y="245.5" width="146.4" height="24.65" shape-rendering="crispEdges"/><rect fill="#272727" x="573.4" y="245.5" width="634.4" height="24.65" shape-rendering="crispEdges"/><rect fill="#1e1e1e" x="1207.8" y="245.5" width="12.2" height="24.65" shape-rendering="crispEdges"/><rect fill="#1e1e1e" x="0" y="269.9" width="12.2" height="24.65" shape-rendering="crispEdges"/><rect fill="#272727" x="12.2" y="269.9" width="292.8" height="24.65" shape-rendering="crispEdges"/><rect fill="#272727" x="305" y="269.9" width="122" height="24.65" shape-rendering="crispEdges"/><rect fill="#272727" x="427" y="269.9" width="146.4" height="24.65" shape-rendering="crispEdges"/><rect fill="#272727" x="573.4" y="269.9" width="634.4" height="24.65" shape-rendering="crispEdges"/><rect fill="#1e1e1e" x="1207.8" y="269.9" width="12.2" height="24.65" shape-rendering="crispEdges"/><rect fill="#1e1e1e" x="0" y="294.3" width="12.2" height="24.65" shape-rendering="crispEdges"/><rect fill="#272727" x="12.2" y="294.3" width="292.8" height="24.65" shape-rendering="crispEdges"/><rect fill="#272727" x="305" y="294.3" width="122" height="24.65" shape-rendering="crispEdges"/><rect fill="#272727" x="427" y="294.3" width="146.4" height="24.65" shape-rendering="crispEdges"/><rect fill="#272727" x="573.4" y="294.3" width="634.4" height="24.65" shape-rendering="crispEdges"/><rect fill="#1e1e1e" x="1207.8" y="294.3" width="12.2" height="24.65" shape-rendering="crispEdges"/><rect fill="#1e1e1e" x="0" y="318.7" width="12.2" height="24.65" shape-rendering="crispEdges"/><rect fill="#272727" x="12.2" y="318.7" width="292.8" height="24.65" shape-rendering="crispEdges"/><rect fill="#272727" x="305" y="318.7" width="122" height="24.65" shape-rendering="crispEdges"/><rect fill="#272727" x="427" y="318.7" width="146.4" height="24.65" shape-rendering="crispEdges"/><rect fill="#272727" x="573.4" y="318.7" width="634.4" height="24.65" shape-rendering="crispEdges"/><rect fill="#1e1e1e" x="1207.8" y="318.7" width="12.2" height="24.65" shape-rendering="crispEdges"/><rect fill="#1e1e1e" x="0" y="343.1" width="12.2" height="24.65" shape-rendering="crispEdges"/><rect fill="#272727" x="12.2" y="343.1" width="292.8" height="24.65" shape-rendering="crispEdges"/><rect fill="#272727" x="305" y="343.1" width="122" height="24.65" shape-rendering="crispEdges"/><rect fill="#272727" x="427" y="343.1" width="146.4" height="24.65" shape-rendering="crispEdges"/><rect fill="#272727" x="573.4" y="343.1" width="634.4" height="24.65" shape-rendering="crispEdges"/><rect fill="#1e1e1e" x="1207.8" y="343.1" width="12.2" height="24.65" shape-rendering="crispEdges"/><rect fill="#1e1e1e" x="0" y="367.5" width="12.2" height="24.65" shape-rendering="crispEdges"/><rect fill="#272727" x="12.2" y="367.5" width="292.8" height="24.65" shape-rendering="crispEdges"/><rect fill="#272727" x="305" y="367.5" width="122" height="24.65" shape-rendering="crispEdges"/><rect fill="#272727" x="427" y="367.5" width="146.4" height="24.65" shape-rendering="crispEdges"/><rect fill="#272727" x="573.4" y="367.5" width="634.4" height="24.65" shape-rendering="crispEdges"/><rect fill="#1e1e1e" x="1207.8" y="367.5" width="12.2" height="24.65" shape-rendering="crispEdges"/><rect fill="#1e1e1e" x="0" y="391.9" width="12.2" height="24.65" shape-rendering="crispEdges"/><rect fill="#272727" x="12.2" y="391.9" width="292.8" height="24.65" shape-rendering="crispEdges"/><rect fill="#272727" x="305" y="391.9" width="122" height="24.65" shape-rendering="crispEdges"/><rect fill="#272727" x="427" y="391.9" width="146.4" height="24.65" shape-rendering="crispEdges"/><rect fill="#272727" x="573.4" y="391.9" width="634.4" height="24.65" shape-rendering="crispEdges"/><rect fill="#1e1e1e" x="1207.8" y="391.9" width="12.2" height="24.65" shape-rendering="crispEdges"/><rect fill="#1e1e1e" x="0" y="416.3" width="12.2" height="24.65" shape-rendering="crispEdges"/><rect fill="#272727" x="12.2" y="416.3" width="292.8" height="24.65" shape-rendering="crispEdges"/><rect fill="#272727" x="305" y="416.3" width="122" height="24.65" shape-rendering="crispEdges"/><rect fill="#272727" x="427" y="416.3" width="146.4" height="24.65" shape-rendering="crispEdges"/><rect fill="#272727" x="573.4" y="416.3" width="634.4" height="24.65" shape-rendering="crispEdges"/><rect fill="#1e1e1e" x="1207.8" y="416.3" width="12.2" height="24.65" shape-rendering="crispEdges"/><rect fill="#1e1e1e" x="0" y="440.7" width="12.2" height="24.65" shape-rendering="crispEdges"/><rect fill="#272727" x="12.2" y="440.7" width="292.8" height="24.65" shape-rendering="crispEdges"/><rect fill="#272727" x="305" y="440.7" width="122" height="24.65" shape-rendering="crispEdges"/><rect fill="#272727" x="427" y="440.7" width="146.4" height="24.65" shape-rendering="crispEdges"/><rect fill="#272727" x="573.4" y="440.7" width="634.4" height="24.65" shape-rendering="crispEdges"/><rect fill="#1e1e1e" x="1207.8" y="440.7" width="12.2" height="24.65" shape-rendering="crispEdges"/><rect fill="#1e1e1e" x="0" y="465.1" width="12.2" height="24.65" shape-rendering="crispEdges"/><rect fill="#272727" x="12.2" y="465.1" width="292.8" height="24.65" shape-rendering="crispEdges"/><rect fill="#272727" x="305" y="465.1" width="122" height="24.65" shape-rendering="crispEdges"/><rect fill="#272727" x="427" y="465.1" width="146.4" height="24.65" shape-rendering="crispEdges"/><rect fill="#272727" x="573.4" y="465.1" width="634.4" height="24.65" shape-rendering="crispEdges"/><rect fill="#1e1e1e" x="1207.8" y="465.1" width="12.2" height="24.65" shape-rendering="crispEdges"/><rect fill="#1e1e1e" x="0" y="489.5" width="12.2" height="24.65" shape-rendering="crispEdges"/><rect fill="#272727" x="12.2" y="489.5" width="292.8" height="24.65" shape-rendering="crispEdges"/><rect fill="#272727" x="305" y="489.5" width="122" height="24.65" shape-rendering="crispEdges"/><rect fill="#272727" x="427" y="489.5" width="146.4" height="24.65" shape-rendering="crispEdges"/><rect fill="#272727" x="573.4" y="489.5" width="634.4" height="24.65" shape-rendering="crispEdges"/><rect fill="#1e1e1e" x="1207.8" y="489.5" width="12.2" height="24.65" shape-rendering="crispEdges"/><rect fill="#1e1e1e" x="0" y="513.9" width="12.2" height="24.65" shape-rendering="crispEdges"/><rect fill="#272727" x="12.2" y="513.9" width="292.8" height="24.65" shape-rendering="crispEdges"/><rect fill="#272727" x="305" y="513.9" width="122" height="24.65" shape-rendering="crispEdges"/><rect fill="#272727" x="427" y="513.9" width="146.4" height="24.65" shape-rendering="crispEdges"/><rect fill="#272727" x="573.4" y="513.9" width="634.4" height="24.65" shape-rendering="crispEdges"/><rect fill="#1e1e1e" x="1207.8" y="513.9" width="12.2" height="24.65" shape-rendering="crispEdges"/><rect fill="#1e1e1e" x="0" y="538.3" width="12.2" height="24.65" shape-rendering="crispEdges"/><rect fill="#272727" x="12.2" y="538.3" width="1195.6" height="24.65" shape-rendering="crispEdges"/><rect fill="#1e1e1e" x="1207.8" y="538.3" width="12.2" height="24.65" shape-rendering="crispEdges"/><rect fill="#1e1e1e" x="0" y="562.7" width="12.2" height="24.65" shape-rendering="crispEdges"/><rect fill="#272727" x="12.2" y="562.7" width="1195.6" height="24.65" shape-rendering="crispEdges"/><rect fill="#1e1e1e" x="1207.8" y="562.7" width="12.2" height="24.65" shape-rendering="crispEdges"/><rect fill="#1e1e1e" x="0" y="587.1" width="12.2" height="24.65" shape-rendering="crispEdges"/><rect fill="#1e1e1e" x="12.2" y="587.1" width="1195.6" height="24.65" shape-rendering="crispEdges"/><rect fill="#1e1e1e" x="1207.8" y="587.1" width="12.2" height="24.65" shape-rendering="crispEdges"/><rect fill="#1e1e1e" x="0" y="611.5" width="12.2" height="24.65" shape-rendering="crispEdges"/><rect fill="#1e1e1e" x="12.2" y="611.5" width="109.8" height="24.65" shape-rendering="crispEdges"/><rect fill="#1e1e1e" x="122" y="611.5" width="1085.8" height="24.65" shape-rendering="crispEdges"/><rect fill="#1e1e1e" x="1207.8" y="611.5" width="12.2" height="24.65" shape-rendering="crispEdges"/><rect fill="#1e1e1e" x="0" y="635.9" width="1220" height="24.65" shape-rendering="crispEdges"/><rect fill="#242f38" x="0" y="660.3" width="36.6" height="24.65" shape-rendering="crispEdges"/><rect fill="#242f38" x="36.6" y="660.3" width="97.6" height="24.65" shape-rendering="crispEdges"/><rect fill="#242f38" x="134.2" y="660.3" width="36.6" height="24.65" shape-rendering="crispEdges"/><rect fill="#242f38" x="170.8" y="660.3" width="61" height="24.65" shape-rendering="crispEdges"/><rect fill="#242f38" x="231.8" y="660.3" width="36.6" height="24.65" shape-rendering="crispEdges"/><rect fill="#242f38" x="268.4" y="660.3" width="85.4" height="24.65" shape-rendering="crispEdges"/><rect fill="#242f38" x="353.8" y="660.3" width="36.6" height="24.65" shape-rendering="crispEdges"/><rect fill="#242f38" x="390.4" y="660.3" width="85.4" height="24.65" shape-rendering="crispEdges"/><rect fill="#242f38" x="475.8" y="660.3" width="36.6" height="24.65" shape-rendering="crispEdges"/><rect fill="#242f38" x="512.4" y="660.3" width="97.6" height="24.65" shape-rendering="crispEdges"/><rect fill="#242f38" x="610" y="660.3" width="36.6" height="24.65" shape-rendering="crispEdges"/><rect fill="#242f38" x="646.6" y="660.3" width="85.4" height="24.65" shape-rendering="crispEdges"/><rect fill="#242f38" x="732" y="660.3" width="36.6" height="24.65" shape-rendering="crispEdges"/><rect fill="#242f38" x="768.6" y="660.3" width="61" height="24.65" shape-rendering="crispEdges"/><rect fill="#242f38" x="829.6" y="660.3" width="244" height="24.65" shape-rendering="crispEdges"/><rect fill="#242f38" x="1073.6" y="660.3" width="12.2" height="24.65" shape-rendering="crispEdges"/><rect fill="#242f38" x="1085.8" y="660.3" width="24.4" height="24.65" shape-rendering="crispEdges"/><rect fill="#242f38" x="1110.2" y="660.3" width="97.6" height="24.65" shape-rendering="crispEdges"/><rect fill="#242f38" x="1207.8" y="660.3" width="12.2" height="24.65" shape-rendering="crispEdges"/>
    <g class="terminal-3423104911-matrix">
    <text class="terminal-3423104911-r2" x="12.2" y="20" textLength="12.2" clip-path="url(#terminal-3423104911-line-0)">⭘</text><text class="terminal-3423104911-r2" x="488" y="20" textLength="207.4" clip-path="url(#terminal-3423104911-line-0)">Ollama&#160;TUI&#160;v0.1.0</text><text class="terminal-3423104911-r1" x="1220" y="20" textLength="12.2" clip-path="url(#terminal-3423104911-line-0)">
</text><text class="terminal-3423104911-r3" x="12.2" y="44.4" textLength="122" clip-path="url(#terminal-3423104911-line-1)">Models&#160;[1]</text><text class="terminal-3423104911-r3" x="158.6" y="44.4" textLength="134.2" clip-path="url(#terminal-3423104911-line-1)">Running&#160;[2]</text><text class="terminal-3423104911-r2" x="317.2" y="44.4" textLength="122" clip-path="url(#terminal-3423104911-line-1)">Search&#160;[3]</text><text class="terminal-3423104911-r1" x="1220" y="44.4" textLength="12.2" clip-path="url(#terminal-3423104911-line-1)">
</text><text class="terminal-3423104911-r4" x="0" y="68.8" textLength="305" clip-path="url(#terminal-3423104911-line-2)">━━━━━━━━━━━━━━━━━━━━━━━━━</text><text class="terminal-3423104911-r4" x="305" y="68.8" textLength="12.2" clip-path="url(#terminal-3423104911-line-2)">╸</text><text class="terminal-3423104911-r5" x="317.2" y="68.8" textLength="122" clip-path="url(#terminal-3423104911-line-2)">━━━━━━━━━━</text><text class="terminal-3423104911-r4" x="439.2" y="68.8" textLength="12.2" clip-path="url(#terminal-3423104911-line-2)">╺</text><text class="terminal-3423104911-r4" x="451.4" y="68.8" textLength="768.6" clip-path="url(#terminal-3423104911-line-2)">━━━━━━━━━━━━━━━━━━━━━━━━━━━━━━━━━━━━━━━━━━━━━━━━━━━━━━━━━━━━━━━</text><text class="terminal-3423104911-r1" x="1220" y="68.8" textLength="12.2" clip-path="url(#terminal-3423104911-line-2)">
</text><text class="terminal-3423104911-r1" x="1220" y="93.2" textLength="12.2" clip-path="url(#terminal-3423104911-line-3)">
</text><text class="terminal-3423104911-r6" x="12.2" y="117.6" textLength="12.2" clip-path="url(#terminal-3423104911-line-4)">▊</text><text class="terminal-3423104911-r7" x="24.4" y="117.6" textLength="1171.2" clip-path="url(#terminal-3423104911-line-4)">▔▔▔▔▔▔▔▔▔▔▔▔▔▔▔▔▔▔▔▔▔▔▔▔▔▔▔▔▔▔▔▔▔▔▔▔▔▔▔▔▔▔▔▔▔▔▔▔▔▔▔▔▔▔▔▔▔▔▔▔▔▔▔▔▔▔▔▔▔▔▔▔▔▔▔▔▔▔▔▔▔▔▔▔▔▔▔▔▔▔▔▔▔▔▔▔</text><text class="terminal-3423104911-r7" x="1195.6" y="117.6" textLength="12.2" clip-path="url(#terminal-3423104911-line-4)">▎</text><text class="terminal-3423104911-r1" x="1220" y="117.6" textLength="12.2" clip-path="url(#terminal-3423104911-line-4)">
</text><text class="terminal-3423104911-r6" x="12.2" y="142" textLength="12.2" clip-path="url(#terminal-3423104911-line-5)">▊</text><text class="terminal-3423104911-r8" x="48.8" y="142" textLength="341.6" clip-path="url(#terminal-3423104911-line-5)">Type&#160;to&#160;filter&#160;models...&#160;[/]</text><text class="terminal-3423104911-r7" x="1195.6" y="142" textLength="12.2" clip-path="url(#terminal-3423104911-line-5)">▎</text><text class="terminal-3423104911-r1" x="1220" y="142" textLength="12.2" clip-path="url(#terminal-3423104911-line-5)">
</text><text class="terminal-3423104911-r6" x="12.2" y="166.4" textLength="12.2" clip-path="url(#terminal-3423104911-line-6)">▊</text><text class="terminal-3423104911-r7" x="24.4" y="166.4" textLength="1171.2" clip-path="url(#terminal-3423104911-line-6)">▁▁▁▁▁▁▁▁▁▁▁▁▁▁▁▁▁▁▁▁▁▁▁▁▁▁▁▁▁▁▁▁▁▁▁▁▁▁▁▁▁▁▁▁▁▁▁▁▁▁▁▁▁▁▁▁▁▁▁▁▁▁▁▁▁▁▁▁▁▁▁▁▁▁▁▁▁▁▁▁▁▁▁▁▁▁▁▁▁▁▁▁▁▁▁▁</text><text class="terminal-3423104911-r7" x="1195.6" y="166.4" textLength="12.2" clip-path="url(#terminal-3423104911-line-6)">▎</text><text class="terminal-3423104911-r1" x="1220" y="166.4" textLength="12.2" clip-path="url(#terminal-3423104911-line-6)">
</text><text class="terminal-3423104911-r1" x="1220" y="190.8" textLength="12.2" clip-path="url(#terminal-3423104911-line-7)">
</text><text class="terminal-3423104911-r9" x="12.2" y="215.2" textLength="292.8" clip-path="url(#terminal-3423104911-line-8)">&#160;Name&#160;&#160;&#160;&#160;&#160;&#160;&#160;&#160;&#160;&#160;&#160;&#160;&#160;&#160;&#160;&#160;&#160;&#160;&#160;</text><text class="terminal-3423104911-r9" x="305" y="215.2" textLength="122" clip-path="url(#terminal-3423104911-line-8)">&#160;Size&#160;&#160;&#160;&#160;&#160;</text><text class="terminal-3423104911-r9" x="427" y="215.2" textLength="146.4" clip-path="url(#terminal-3423104911-line-8)">&#160;Modified&#160;&#160;&#160;</text><text class="terminal-3423104911-r1" x="1220" y="215.2" textLength="12.2" clip-path="url(#terminal-3423104911-line-8)">
</text><text class="terminal-3423104911-r10" x="12.2" y="239.6" textLength="292.8" clip-path="url(#terminal-3423104911-line-9)">&#160;llama3.2:latest&#160;&#160;&#160;&#160;&#160;&#160;&#160;&#160;</text><text class="terminal-3423104911-r10" x="305" y="239.6" textLength="122" clip-path="url(#terminal-3423104911-line-9)">&#160;2.0&#160;GB&#160;&#160;&#160;</text><text class="terminal-3423104911-r10" x="427" y="239.6" textLength="146.4" clip-path="url(#terminal-3423104911-line-9)">&#160;2025-01-15&#160;</text><text class="terminal-3423104911-r1" x="1220" y="239.6" textLength="12.2" clip-path="url(#terminal-3423104911-line-9)">
</text><text class="terminal-3423104911-r2" x="12.2" y="264" textLength="292.8" clip-path="url(#terminal-3423104911-line-10)">&#160;llama3.1:8b&#160;&#160;&#160;&#160;&#160;&#160;&#160;&#160;&#160;&#160;&#160;&#160;</text><text class="terminal-3423104911-r2" x="305" y="264" textLength="122" clip-path="url(#terminal-3423104911-line-10)">&#160;4.7&#160;GB&#160;&#160;&#160;</text><text class="terminal-3423104911-r2" x="427" y="264" textLength="146.4" clip-path="url(#terminal-3423104911-line-10)">&#160;2025-01-10&#160;</text><text class="terminal-3423104911-r1" x="1220" y="264" textLength="12.2" clip-path="url(#terminal-3423104911-line-10)">
</text><text class="terminal-3423104911-r2" x="12.2" y="288.4" textLength="292.8" clip-path="url(#terminal-3423104911-line-11)">&#160;llama3.1:70b&#160;&#160;&#160;&#160;&#160;&#160;&#160;&#160;&#160;&#160;&#160;</text><text class="terminal-3423104911-r2" x="305" y="288.4" textLength="122" clip-path="url(#terminal-3423104911-line-11)">&#160;40&#160;GB&#160;&#160;&#160;&#160;</text><text class="terminal-3423104911-r2" x="427" y="288.4" textLength="146.4" clip-path="url(#terminal-3423104911-line-11)">&#160;2025-01-10&#160;</text><text class="terminal-3423104911-r1" x="1220" y="288.4" textLength="12.2" clip-path="url(#terminal-3423104911-line-11)">
</text><text class="terminal-3423104911-r2" x="12.2" y="312.8" textLength="292.8" clip-path="url(#terminal-3423104911-line-12)">&#160;llama2:latest&#160;&#160;&#160;&#160;&#160;&#160;&#160;&#160;&#160;&#160;</text><text class="terminal-3423104911-r2" x="305" y="312.8" textLength="122" clip-path="url(#terminal-3423104911-line-12)">&#160;3.8&#160;GB&#160;&#160;&#160;</text><text class="terminal-3423104911-r2" x="427" y="312.8" textLength="146.4" clip-path="url(#terminal-3423104911-line-12)">&#160;2024-12-01&#160;</text><text class="terminal-3423104911-r1" x="1220" y="312.8" textLength="12.2" clip-path="url(#terminal-3423104911-line-12)">
</text><text class="terminal-3423104911-r2" x="12.2" y="337.2" textLength="292.8" clip-path="url(#terminal-3423104911-line-13)">&#160;codellama:latest&#160;&#160;&#160;&#160;&#160;&#160;&#160;</text><text class="terminal-3423104911-r2" x="305" y="337.2" textLength="122" clip-path="url(#terminal-3423104911-line-13)">&#160;3.8&#160;GB&#160;&#160;&#160;</text><text class="terminal-3423104911-r2" x="427" y="337.2" textLength="146.4" clip-path="url(#terminal-3423104911-line-13)">&#160;2024-11-15&#160;</text><text class="terminal-3423104911-r1" x="1220" y="337.2" textLength="12.2" clip-path="url(#terminal-3423104911-line-13)">
</text><text class="terminal-3423104911-r2" x="12.2" y="361.6" textLength="292.8" clip-path="url(#terminal-3423104911-line-14)">&#160;mistral:latest&#160;&#160;&#160;&#160;&#160;&#160;&#160;&#160;&#160;</text><text class="terminal-3423104911-r2" x="305" y="361.6" textLength="122" clip-path="url(#terminal-3423104911-line-14)">&#160;4.1&#160;GB&#160;&#160;&#160;</text><text class="terminal-3423104911-r2" x="427" y="361.6" textLength="146.4" clip-path="url(#terminal-3423104911-line-14)">&#160;2025-01-12&#160;</text><text class="terminal-3423104911-r1" x="1220" y="361.6" textLength="12.2" clip-path="url(#terminal-3423104911-line-14)">
</text><text class="terminal-3423104911-r2" x="12.2" y="386" textLength="292.8" clip-path="url(#terminal-3423104911-line-15)">&#160;mixtral:8x7b&#160;&#160;&#160;&#160;&#160;&#160;&#160;&#160;&#160;&#160;&#160;</text><text class="terminal-3423104911-r2" x="305" y="386" textLength="122" clip-path="url(#terminal-3423104911-line-15)">&#160;26&#160;GB&#160;&#160;&#160;&#160;</text><text class="terminal-3423104911-r2" x="427" y="386" textLength="146.4" clip-path="url(#terminal-3423104911-line-15)">&#160;2025-01-08&#160;</text><text class="terminal-3423104911-r1" x="1220" y="386" textLength="12.2" clip-path="url(#terminal-3423104911-line-15)">
</text><text class="terminal-3423104911-r2" x="12.2" y="410.4" textLength="292.8" clip-path="url(#terminal-3423104911-line-16)">&#160;qwen2.5:7b&#160;&#160;&#160;&#160;&#160;&#160;&#160;&#160;&#160;&#160;&#160;&#160;&#160;</text><text class="terminal-3423104911-r2" x="305" y="410.4" textLength="122" clip-path="url(#terminal-3423104911-line-16)">&#160;4.7&#160;GB&#160;&#160;&#160;</text><text class="terminal-3423104911-r2" x="427" y="410.4" textLength="146.4" clip-path="url(#terminal-3423104911-line-16)">&#160;2025-01-20&#160;</text><text class="terminal-3423104911-r1" x="1220" y="410.4" textLength="12.2" clip-path="url(#terminal-3423104911-line-16)">
</text><text class="terminal-3423104911-r2" x="12.2" y="434.8" textLength="292.8" clip-path="url(#terminal-3423104911-line-17)">&#160;qwen2.5:14b&#160;&#160;&#160;&#160;&#160;&#160;&#160;&#160;&#160;&#160;&#160;&#160;</text><text class="terminal-3423104911-r2" x="305" y="434.8" textLength="122" clip-path="url(#terminal-3423104911-line-17)">&#160;9.0&#160;GB&#160;&#160;&#160;</text><text class="terminal-3423104911-r2" x="427" y="434.8" textLength="146.4" clip-path="url(#terminal-3423104911-line-17)">&#160;2025-01-20&#160;</text><text class="terminal-3423104911-r1" x="1220" y="434.8" textLength="12.2" clip-path="url(#terminal-3423104911-line-17)">
</text><text class="terminal-3423104911-r2" x="12.2" y="459.2" textLength="292.8" clip-path="url(#terminal-3423104911-line-18)">&#160;gemma2:2b&#160;&#160;&#160;&#160;&#160;&#160;&#160;&#160;&#160;&#160;&#160;&#160;&#160;&#160;</text><text class="terminal-3423104911-r2" x="305" y="459.2" textLength="122" clip-path="url(#terminal-3423104911-line-18)">&#160;1.6&#160;GB&#160;&#160;&#160;</text><text class="terminal-3423104911-r2" x="427" y="459.2" textLength="146.4" clip-path="url(#terminal-3423104911-line-18)">&#160;2025-01-18&#160;</text><text class="terminal-3423104911-r1" x="1220" y="459.2" textLength="12.2" clip-path="url(#terminal-3423104911-line-18)">
</text><text class="terminal-3423104911-r2" x="12.2" y="483.6" textLength="292.8" clip-path="url(#terminal-3423104911-line-19)">&#160;gemma2:9b&#160;&#160;&#160;&#160;&#160;&#160;&#160;&#160;&#160;&#160;&#160;&#160;&#160;&#160;</text><text class="terminal-3423104911-r2" x="305" y="483.6" textLength="122" clip-path="url(#terminal-3423104911-line-19)">&#160;5.4&#160;GB&#160;&#160;&#160;</text><text class="terminal-3423104911-r2" x="427" y="483.6" textLength="146.4" clip-path="url(#terminal-3423104911-line-19)">&#160;2025-01-18&#160;</text><text class="terminal-3423104911-r1" x="1220" y="483.6" textLength="12.2" clip-path="url(#terminal-3423104911-line-19)">
</text><text class="terminal-3423104911-r2" x="12.2" y="508" textLength="292.8" clip-path="url(#terminal-3423104911-line-20)">&#160;phi3:latest&#160;&#160;&#160;&#160;&#160;&#160;&#160;&#160;&#160;&#160;&#160;&#160;</text><text class="terminal-3423104911-r2" x="305" y="508" textLength="122" clip-path="url(#terminal-3423104911-line-20)">&#160;2.2&#160;GB&#160;&#160;&#160;</text><text class="terminal-3423104911-r2" x="427" y="508" textLength="146.4" clip-path="url(#terminal-3423104911-line-20)">&#160;2025-01-05&#160;</text><text class="terminal-3423104911-r1" x="1220" y="508" textLength="12.2" clip-path="url(#terminal-3423104911-line-20)">
</text><text class="terminal-3423104911-r2" x="12.2" y="532.4" textLength="292.8" clip-path="url(#terminal-3423104911-line-21)">&#160;deepseek-r1:latest&#160;&#160;&#160;&#160;&#160;</text><text class="terminal-3423104911-r2" x="305" y="532.4" textLength="122" clip-path="url(#terminal-3423104911-line-21)">&#160;4.7&#160;GB&#160;&#160;&#160;</text><text class="terminal-3423104911-r2" x="427" y="532.4" textLength="146.4" clip-path="url(#terminal-3423104911-line-21)">&#160;2025-01-25&#160;</text><text class="terminal-3423104911-r1" x="1220" y="532.4" textLength="12.2" clip-path="url(#terminal-3423104911-line-21)">
</text><text class="terminal-3423104911-r1" x="1220" y="556.8" textLength="12.2" clip-path="url(#terminal-3423104911-line-22)">
</text><text class="terminal-3423104911-r1" x="1220" y="581.2" textLength="12.2" clip-path="url(#terminal-3423104911-line-23)">
</text><text class="terminal-3423104911-r1" x="1220" y="605.6" textLength="12.2" clip-path="url(#terminal-3423104911-line-24)">
</text><text class="terminal-3423104911-r11" x="12.2" y="630" textLength="109.8" clip-path="url(#terminal-3423104911-line-25)">13&#160;models</text><text class="terminal-3423104911-r1" x="1220" y="630" textLength="12.2" clip-path="url(#terminal-3423104911-line-25)">
</text><text class="terminal-3423104911-r1" x="1220" y="654.4" textLength="12.2" clip-path="url(#terminal-3423104911-line-26)">
</text><text class="terminal-3423104911-r12" x="0" y="678.8" textLength="36.6" clip-path="url(#terminal-3423104911-line-27)">&#160;r&#160;</text><text class="terminal-3423104911-r2" x="36.6" y="678.8" textLength="97.6" clip-path="url(#terminal-3423104911-line-27)">Refresh&#160;</text><text class="terminal-3423104911-r12" x="134.2" y="678.8" textLength="36.6" clip-path="url(#terminal-3423104911-line-27)">&#160;p&#160;</text><text class="terminal-3423104911-r2" x="170.8" y="678.8" textLength="61" clip-path="url(#terminal-3423104911-line-27)">Pull&#160;</text><text class="terminal-3423104911-r12" x="231.8" y="678.8" textLength="36.6" clip-path="url(#terminal-3423104911-line-27)">&#160;/&#160;</text><text class="terminal-3423104911-r2" x="268.4" y="678.8" textLength="85.4" clip-path="url(#terminal-3423104911-line-27)">Search&#160;</text><text class="terminal-3423104911-r12" x="353.8" y="678.8" textLength="36.6" clip-path="url(#terminal-3423104911-line-27)">&#160;1&#160;</text><text class="terminal-3423104911-r2" x="390.4" y="678.8" textLength="85.4" clip-path="url(#terminal-3423104911-line-27)">Models&#160;</text><text class="terminal-3423104911-r12" x="475.8" y="678.8" textLength="36.6" clip-path="url(#terminal-3423104911-line-27)">&#160;2&#160;</text><text class="terminal-3423104911-r2" x="512.4" y="678.8" textLength="97.6" clip-path="url(#terminal-3423104911-line-27)">Running&#160;</text><text class="terminal-3423104911-r12" x="610" y="678.8" textLength="36.6" clip-path="url(#terminal-3423104911-line-27)">&#160;3&#160;</text><text class="terminal-3423104911-r2" x="646.6" y="678.8" textLength="85.4" clip-path="url(#terminal-3423104911-line-27)">Search&#160;</text><text class="terminal-3423104911-r12" x="732" y="678.8" textLength="36.6" clip-path="url(#terminal-3423104911-line-27)">&#160;q&#160;</text><text class="terminal-3423104911-r2" x="768.6" y="678.8" textLength="61" clip-path="url(#terminal-3423104911-line-27)">Quit&#160;</text><text class="terminal-3423104911-r13" x="1073.6" y="678.8" textLength="12.2" clip-path="url(#terminal-3423104911-line-27)">▏</text><text class="terminal-3423104911-r12" x="1085.8" y="678.8" textLength="24.4" clip-path="url(#terminal-3423104911-line-27)">^p</text><text class="terminal-3423104911-r2" x="1110.2" y="678.8" textLength="97.6" clip-path="url(#terminal-3423104911-line-27)">&#160;palette</text>
    </g>
    </g>
</svg>
