<svg class="rich-terminal" viewBox="0 0 1238 733.1999999999999" xmlns="http://www.w3.org/2000/svg">
    <!-- Generated with Rich https://www.textualize.io -->
    <style>

    @font-face {
        font-family: "Fira Code";
        src: local("FiraCode-Regular"),
                url("https://cdnjs.cloudflare.com/ajax/libs/firacode/6.2.0/woff2/FiraCode-Regular.woff2") format("woff2"),
                url("https://cdnjs.cloudflare.com/ajax/libs/firacode/6.2.0/woff/FiraCode-Regular.woff") format("woff");
        font-style: normal;
        font-weight: 400;
    }
    @font-face {
        font-family: "Fira Code";
        src: local("FiraCode-Bold"),
                url("https://cdnjs.cloudflare.com/ajax/libs/firacode/6.2.0/woff2/FiraCode-Bold.woff2") format("woff2"),
                url("https://cdnjs.cloudflare.com/ajax/libs/firacode/6.2.0/woff/FiraCode-Bold.woff") format("woff");
        font-style: bold;
        font-weight: 700;
    }

    .terminal-2877537115-matrix {
        font-family: Fira Code, monospace;
        font-size: 20px;
        line-height: 24.4px;
        font-variant-east-asian: full-width;
    }

    .terminal-2877537115-title {
        font-size: 18px;
        font-weight: bold;
        font-family: arial;
    }

    .terminal-2877537115-r1 { fill: #c5c8c6 }
.terminal-2877537115-r2 { fill: #0178d4 }
.terminal-2877537115-r3 { fill: #e0e0e0 }
.terminal-2877537115-r4 { fill: #6db2ff }
.terminal-2877537115-r5 { fill: #e76580 }
.terminal-2877537115-r6 { fill: #0c7dd4;font-weight: bold }
.terminal-2877537115-r7 { fill: #f5e5e9;font-weight: bold }
.terminal-2877537115-r8 { fill: #004295 }
.terminal-2877537115-r9 { fill: #780028 }
    </style>

    <defs>
    <clipPath id="terminal-2877537115-clip-terminal">
      <rect x="0" y="0" width="1219.0" height="682.1999999999999" />
    </clipPath>
    <clipPath id="terminal-2877537115-line-0">
    <rect x="0" y="1.5" width="1220" height="24.65"/>
            </clipPath>
<clipPath id="terminal-2877537115-line-1">
    <rect x="0" y="25.9" width="1220" height="24.65"/>
            </clipPath>
<clipPath id="terminal-2877537115-line-2">
    <rect x="0" y="50.3" width="1220" height="24.65"/>
            </clipPath>
<clipPath id="terminal-2877537115-line-3">
    <rect x="0" y="74.7" width="1220" height="24.65"/>
            </clipPath>
<clipPath id="terminal-2877537115-line-4">
    <rect x="0" y="99.1" width="1220" height="24.65"/>
            </clipPath>
<clipPath id="terminal-2877537115-line-5">
    <rect x="0" y="123.5" width="1220" height="24.65"/>
            </clipPath>
<clipPath id="terminal-2877537115-line-6">
    <rect x="0" y="147.9" width="1220" height="24.65"/>
            </clipPath>
<clipPath id="terminal-2877537115-line-7">
    <rect x="0" y="172.3" width="1220" height="24.65"/>
            </clipPath>
<clipPath id="terminal-2877537115-line-8">
    <rect x="0" y="196.7" width="1220" height="24.65"/>
            </clipPath>
<clipPath id="terminal-2877537115-line-9">
    <rect x="0" y="221.1" width="1220" height="24.65"/>
            </clipPath>
<clipPath id="terminal-2877537115-line-10">
    <rect x="0" y="245.5" width="1220" height="24.65"/>
            </clipPath>
<clipPath id="terminal-2877537115-line-11">
    <rect x="0" y="269.9" width="1220" height="24.65"/>
            </clipPath>
<clipPath id="terminal-2877537115-line-12">
    <rect x="0" y="294.3" width="1220" height="24.65"/>
            </clipPath>
<clipPath id="terminal-2877537115-line-13">
    <rect x="0" y="318.7" width="1220" height="24.65"/>
            </clipPath>
<clipPath id="terminal-2877537115-line-14">
    <rect x="0" y="343.1" width="1220" height="24.65"/>
            </clipPath>
<clipPath id="terminal-2877537115-line-15">
    <rect x="0" y="367.5" width="1220" height="24.65"/>
            </clipPath>
<clipPath id="terminal-2877537115-line-16">
    <rect x="0" y="391.9" width="1220" height="24.65"/>
            </clipPath>
<clipPath id="terminal-2877537115-line-17">
    <rect x="0" y="416.3" width="1220" height="24.65"/>
            </clipPath>
<clipPath id="terminal-2877537115-line-18">
    <rect x="0" y="440.7" width="1220" height="24.65"/>
            </clipPath>
<clipPath id="terminal-2877537115-line-19">
    <rect x="0" y="465.1" width="1220" height="24.65"/>
            </clipPath>
<clipPath id="terminal-2877537115-line-20">
    <rect x="0" y="489.5" width="1220" height="24.65"/>
            </clipPath>
<clipPath id="terminal-2877537115-line-21">
    <rect x="0" y="513.9" width="1220" height="24.65"/>
            </clipPath>
<clipPath id="terminal-2877537115-line-22">
    <rect x="0" y="538.3" width="1220" height="24.65"/>
            </clipPath>
<clipPath id="terminal-2877537115-line-23">
    <rect x="0" y="562.7" width="1220" height="24.65"/>
            </clipPath>
<clipPath id="terminal-2877537115-line-24">
    <rect x="0" y="587.1" width="1220" height="24.65"/>
            </clipPath>
<clipPath id="terminal-2877537115-line-25">
    <rect x="0" y="611.5" width="1220" height="24.65"/>
            </clipPath>
<clipPath id="terminal-2877537115-line-26">
    <rect x="0" y="635.9" width="1220" height="24.65"/>
            </clipPath>
    </defs>

    <rect fill="#292929" stroke="rgba(255,255,255,0.35)" stroke-width="1" x="1" y="1" width="1236" height="731.2" rx="8"/><text class="terminal-2877537115-title" fill="#c5c8c6" text-anchor="middle" x="618" y="27">Ollama&#160;TUI&#160;v0.1.0</text>
            <g transform="translate(26,22)">
            <circle cx="0" cy="0" r="7" fill="#ff5f57"/>
            <circle cx="22" cy="0" r="7" fill="#febc2e"/>
            <circle cx="44" cy="0" r="7" fill="#28c840"/>
            </g>
        
    <g transform="translate(9, 41)" clip-path="url(#terminal-2877537115-clip-terminal)">
    <rect fill="#1e1e1e" x="0" y="1.5" width="1220" height="24.65" shape-rendering="crispEdges"/><rect fill="#1e1e1e" x="0" y="25.9" width="1220" height="24.65" shape-rendering="crispEdges"/><rect fill="#1e1e1e" x="0" y="50.3" width="1220" height="24.65" shape-rendering="crispEdges"/><rect fill="#1e1e1e" x="0" y="74.7" width="1220" height="24.65" shape-rendering="crispEdges"/><rect fill="#1e1e1e" x="0" y="99.1" width="1220" height="24.65" shape-rendering="crispEdges"/><rect fill="#1e1e1e" x="0" y="123.5" width="1220" height="24.65" shape-rendering="crispEdges"/><rect fill="#1e1e1e" x="0" y="147.9" width="1220" height="24.65" shape-rendering="crispEdges"/><rect fill="#1e1e1e" x="0" y="172.3" width="1220" height="24.65" shape-rendering="crispEdges"/><rect fill="#1e1e1e" x="0" y="196.7" width="1220" height="24.65" shape-rendering="crispEdges"/><rect fill="#1e1e1e" x="0" y="221.1" width="305" height="24.65" shape-rendering="crispEdges"/><rect fill="#1e1e1e" x="305" y="221.1" width="12.2" height="24.65" shape-rendering="crispEdges"/><rect fill="#1e1e1e" x="317.2" y="221.1" width="585.6" height="24.65" shape-rendering="crispEdges"/><rect fill="#1e1e1e" x="902.8" y="221.1" width="12.2" height="24.65" shape-rendering="crispEdges"/><rect fill="#1e1e1e" x="915" y="221.1" width="305" height="24.65" shape-rendering="crispEdges"/><rect fill="#1e1e1e" x="0" y="245.5" width="305" height="24.65" shape-rendering="crispEdges"/><rect fill="#1e1e1e" x="305" y="245.5" width="12.2" height="24.65" shape-rendering="crispEdges"/><rect fill="#1e1e1e" x="317.2" y="245.5" width="585.6" height="24.65" shape-rendering="crispEdges"/><rect fill="#1e1e1e" x="902.8" y="245.5" width="12.2" height="24.65" shape-rendering="crispEdges"/><rect fill="#1e1e1e" x="915" y="245.5" width="305" height="24.65" shape-rendering="crispEdges"/><rect fill="#1e1e1e" x="0" y="269.9" width="305" height="24.65" shape-rendering="crispEdges"/><rect fill="#1e1e1e" x="305" y="269.9" width="12.2" height="24.65" shape-rendering="crispEdges"/><rect fill="#1e1e1e" x="317.2" y="269.9" width="24.4" height="24.65" shape-rendering="crispEdges"/><rect fill="#1e1e1e" x="341.6" y="269.9" width="85.4" height="24.65" shape-rendering="crispEdges"/><rect fill="#1e1e1e" x="427" y="269.9" width="353.8" height="24.65" shape-rendering="crispEdges"/><rect fill="#1e1e1e" x="780.8" y="269.9" width="97.6" height="24.65" shape-rendering="crispEdges"/><rect fill="#1e1e1e" x="878.4" y="269.9" width="24.4" height="24.65" shape-rendering="crispEdges"/><rect fill="#1e1e1e" x="902.8" y="269.9" width="12.2" height="24.65" shape-rendering="crispEdges"/><rect fill="#1e1e1e" x="915" y="269.9" width="305" height="24.65" shape-rendering="crispEdges"/><rect fill="#1e1e1e" x="0" y="294.3" width="305" height="24.65" shape-rendering="crispEdges"/><rect fill="#1e1e1e" x="305" y="294.3" width="12.2" height="24.65" shape-rendering="crispEdges"/><rect fill="#1e1e1e" x="317.2" y="294.3" width="24.4" height="24.65" shape-rendering="crispEdges"/><rect fill="#1e1e1e" x="341.6" y="294.3" width="536.8" height="24.65" shape-rendering="crispEdges"/><rect fill="#1e1e1e" x="878.4" y="294.3" width="24.4" height="24.65" shape-rendering="crispEdges"/><rect fill="#1e1e1e" x="902.8" y="294.3" width="12.2" height="24.65" shape-rendering="crispEdges"/><rect fill="#1e1e1e" x="915" y="294.3" width="305" height="24.65" shape-rendering="crispEdges"/><rect fill="#1e1e1e" x="0" y="318.7" width="305" height="24.65" shape-rendering="crispEdges"/><rect fill="#1e1e1e" x="305" y="318.7" width="12.2" height="24.65" shape-rendering="crispEdges"/><rect fill="#1e1e1e" x="317.2" y="318.7" width="24.4" height="24.65" shape-rendering="crispEdges"/><rect fill="#1e1e1e" x="341.6" y="318.7" width="61" height="24.65" shape-rendering="crispEdges"/><rect fill="#0c7dd4" x="402.6" y="318.7" width="195.2" height="24.65" shape-rendering="crispEdges"/><rect fill="#1e1e1e" x="597.8" y="318.7" width="12.2" height="24.65" shape-rendering="crispEdges"/><rect fill="#b93c5b" x="610" y="318.7" width="195.2" height="24.65" shape-rendering="crispEdges"/><rect fill="#1e1e1e" x="805.2" y="318.7" width="73.2" height="24.65" shape-rendering="crispEdges"/><rect fill="#1e1e1e" x="878.4" y="318.7" width="24.4" height="24.65" shape-rendering="crispEdges"/><rect fill="#1e1e1e" x="902.8" y="318.7" width="12.2" height="24.65" shape-rendering="crispEdges"/><rect fill="#1e1e1e" x="915" y="318.7" width="305" height="24.65" shape-rendering="crispEdges"/><rect fill="#1e1e1e" x="0" y="343.1" width="305" height="24.65" shape-rendering="crispEdges"/><rect fill="#1e1e1e" x="305" y="343.1" width="12.2" height="24.65" shape-rendering="crispEdges"/><rect fill="#1e1e1e" x="317.2" y="343.1" width="24.4" height="24.65" shape-rendering="crispEdges"/><rect fill="#1e1e1e" x="341.6" y="343.1" width="61" height="24.65" shape-rendering="crispEdges"/><rect fill="#0c7dd4" x="402.6" y="343.1" width="48.8" height="24.65" shape-rendering="crispEdges"/><rect fill="#dfeef9" x="451.4" y="343.1" width="97.6" height="24.65" shape-rendering="crispEdges"/><rect fill="#0c7dd4" x="549" y="343.1" width="48.8" height="24.65" shape-rendering="crispEdges"/><rect fill="#1e1e1e" x="597.8" y="343.1" width="12.2" height="24.65" shape-rendering="crispEdges"/><rect fill="#b93c5b" x="610" y="343.1" width="36.6" height="24.65" shape-rendering="crispEdges"/><rect fill="#b93c5b" x="646.6" y="343.1" width="109.8" height="24.65" shape-rendering="crispEdges"/><rect fill="#b93c5b" x="756.4" y="343.1" width="48.8" height="24.65" shape-rendering="crispEdges"/><rect fill="#1e1e1e" x="805.2" y="343.1" width="73.2" height="24.65" shape-rendering="crispEdges"/><rect fill="#1e1e1e" x="878.4" y="343.1" width="24.4" height="24.65" shape-rendering="crispEdges"/><rect fill="#1e1e1e" x="902.8" y="343.1" width="12.2" height="24.65" shape-rendering="crispEdges"/><rect fill="#1e1e1e" x="915" y="343.1" width="305" height="24.65" shape-rendering="crispEdges"/><rect fill="#1e1e1e" x="0" y="367.5" width="305" height="24.65" shape-rendering="crispEdges"/><rect fill="#1e1e1e" x="305" y="367.5" width="12.2" height="24.65" shape-rendering="crispEdges"/><rect fill="#1e1e1e" x="317.2" y="367.5" width="24.4" height="24.65" shape-rendering="crispEdges"/><rect fill="#1e1e1e" x="341.6" y="367.5" width="61" height="24.65" shape-rendering="crispEdges"/><rect fill="#0c7dd4" x="402.6" y="367.5" width="195.2" height="24.65" shape-rendering="crispEdges"/><rect fill="#1e1e1e" x="597.8" y="367.5" width="12.2" height="24.65" shape-rendering="crispEdges"/><rect fill="#b93c5b" x="610" y="367.5" width="195.2" height="24.65" shape-rendering="crispEdges"/><rect fill="#1e1e1e" x="805.2" y="367.5" width="73.2" height="24.65" shape-rendering="crispEdges"/><rect fill="#1e1e1e" x="878.4" y="367.5" width="24.4" height="24.65" shape-rendering="crispEdges"/><rect fill="#1e1e1e" x="902.8" y="367.5" width="12.2" height="24.65" shape-rendering="crispEdges"/><rect fill="#1e1e1e" x="915" y="367.5" width="305" height="24.65" shape-rendering="crispEdges"/><rect fill="#1e1e1e" x="0" y="391.9" width="305" height="24.65" shape-rendering="crispEdges"/><rect fill="#1e1e1e" x="305" y="391.9" width="12.2" height="24.65" shape-rendering="crispEdges"/><rect fill="#1e1e1e" x="317.2" y="391.9" width="585.6" height="24.65" shape-rendering="crispEdges"/><rect fill="#1e1e1e" x="902.8" y="391.9" width="12.2" height="24.65" shape-rendering="crispEdges"/><rect fill="#1e1e1e" x="915" y="391.9" width="305" height="24.65" shape-rendering="crispEdges"/><rect fill="#1e1e1e" x="0" y="416.3" width="305" height="24.65" shape-rendering="crispEdges"/><rect fill="#1e1e1e" x="305" y="416.3" width="12.2" height="24.65" shape-rendering="crispEdges"/><rect fill="#1e1e1e" x="317.2" y="416.3" width="585.6" height="24.65" shape-rendering="crispEdges"/><rect fill="#1e1e1e" x="902.8" y="416.3" width="12.2" height="24.65" shape-rendering="crispEdges"/><rect fill="#1e1e1e" x="915" y="416.3" width="305" height="24.65" shape-rendering="crispEdges"/><rect fill="#1e1e1e" x="0" y="440.7" width="1220" height="24.65" shape-rendering="crispEdges"/><rect fill="#1e1e1e" x="0" y="465.1" width="1220" height="24.65" shape-rendering="crispEdges"/><rect fill="#1e1e1e" x="0" y="489.5" width="1220" height="24.65" shape-rendering="crispEdges"/><rect fill="#1e1e1e" x="0" y="513.9" width="1220" height="24.65" shape-rendering="crispEdges"/><rect fill="#1e1e1e" x="0" y="538.3" width="1220" height="24.65" shape-rendering="crispEdges"/><rect fill="#1e1e1e" x="0" y="562.7" width="1220" height="24.65" shape-rendering="crispEdges"/><rect fill="#1e1e1e" x="0" y="587.1" width="1220" height="24.65" shape-rendering="crispEdges"/><rect fill="#1e1e1e" x="0" y="611.5" width="1220" height="24.65" shape-rendering="crispEdges"/><rect fill="#1e1e1e" x="0" y="635.9" width="1220" height="24.65" shape-rendering="crispEdges"/><rect fill="#1e1e1e" x="0" y="660.3" width="1220" height="24.65" shape-rendering="crispEdges"/>
    <g class="terminal-2877537115-matrix">
    <text class="terminal-2877537115-r1" x="1220" y="20" textLength="12.2" clip-path="url(#terminal-2877537115-line-0)">
</text><text class="terminal-2877537115-r1" x="1220" y="44.4" textLength="12.2" clip-path="url(#terminal-2877537115-line-1)">
</text><text class="terminal-2877537115-r1" x="1220" y="68.8" textLength="12.2" clip-path="url(#terminal-2877537115-line-2)">
</text><text class="terminal-2877537115-r1" x="1220" y="93.2" textLength="12.2" clip-path="url(#terminal-2877537115-line-3)">
</text><text class="terminal-2877537115-r1" x="1220" y="117.6" textLength="12.2" clip-path="url(#terminal-2877537115-line-4)">
</text><text class="terminal-2877537115-r1" x="1220" y="142" textLength="12.2" clip-path="url(#terminal-2877537115-line-5)">
</text><text class="terminal-2877537115-r1" x="1220" y="166.4" textLength="12.2" clip-path="url(#terminal-2877537115-line-6)">
</text><text class="terminal-2877537115-r1" x="1220" y="190.8" textLength="12.2" clip-path="url(#terminal-2877537115-line-7)">
</text><text class="terminal-2877537115-r1" x="1220" y="215.2" textLength="12.2" clip-path="url(#terminal-2877537115-line-8)">
</text><text class="terminal-2877537115-r2" x="305" y="239.6" textLength="12.2" clip-path="url(#terminal-2877537115-line-9)">█</text><text class="terminal-2877537115-r2" x="317.2" y="239.6" textLength="585.6" clip-path="url(#terminal-2877537115-line-9)">▀▀▀▀▀▀▀▀▀▀▀▀▀▀▀▀▀▀▀▀▀▀▀▀▀▀▀▀▀▀▀▀▀▀▀▀▀▀▀▀▀▀▀▀▀▀▀▀</text><text class="terminal-2877537115-r2" x="902.8" y="239.6" textLength="12.2" clip-path="url(#terminal-2877537115-line-9)">█</text><text class="terminal-2877537115-r1" x="1220" y="239.6" textLength="12.2" clip-path="url(#terminal-2877537115-line-9)">
</text><text class="terminal-2877537115-r2" x="305" y="264" textLength="12.2" clip-path="url(#terminal-2877537115-line-10)">█</text><text class="terminal-2877537115-r2" x="902.8" y="264" textLength="12.2" clip-path="url(#terminal-2877537115-line-10)">█</text><text class="terminal-2877537115-r1" x="1220" y="264" textLength="12.2" clip-path="url(#terminal-2877537115-line-10)">
</text><text class="terminal-2877537115-r2" x="305" y="288.4" textLength="12.2" clip-path="url(#terminal-2877537115-line-11)">█</text><text class="terminal-2877537115-r3" x="427" y="288.4" textLength="353.8" clip-path="url(#terminal-2877537115-line-11)">Pull&#160;model&#160;&#x27;llama3.2:latest&#x27;?</text><text class="terminal-2877537115-r2" x="902.8" y="288.4" textLength="12.2" clip-path="url(#terminal-2877537115-line-11)">█</text><text class="terminal-2877537115-r1" x="1220" y="288.4" textLength="12.2" clip-path="url(#terminal-2877537115-line-11)">
</text><text class="terminal-2877537115-r2" x="305" y="312.8" textLength="12.2" clip-path="url(#terminal-2877537115-line-12)">█</text><text class="terminal-2877537115-r2" x="902.8" y="312.8" textLength="12.2" clip-path="url(#terminal-2877537115-line-12)">█</text><text class="terminal-2877537115-r1" x="1220" y="312.8" textLength="12.2" clip-path="url(#terminal-2877537115-line-12)">
</text><text class="terminal-2877537115-r2" x="305" y="337.2" textLength="12.2" clip-path="url(#terminal-2877537115-line-13)">█</text><text class="terminal-2877537115-r4" x="402.6" y="337.2" textLength="195.2" clip-path="url(#terminal-2877537115-line-13)">▔▔▔▔▔▔▔▔▔▔▔▔▔▔▔▔</text><text class="terminal-2877537115-r5" x="610" y="337.2" textLength="195.2" clip-path="url(#terminal-2877537115-line-13)">▔▔▔▔▔▔▔▔▔▔▔▔▔▔▔▔</text><text class="terminal-2877537115-r2" x="902.8" y="337.2" textLength="12.2" clip-path="url(#terminal-2877537115-line-13)">█</text><text class="terminal-2877537115-r1" x="1220" y="337.2" textLength="12.2" clip-path="url(#terminal-2877537115-line-13)">
</text><text class="terminal-2877537115-r2" x="305" y="361.6" textLength="12.2" clip-path="url(#terminal-2877537115-line-14)">█</text><text class="terminal-2877537115-r6" x="451.4" y="361.6" textLength="97.6" clip-path="url(#terminal-2877537115-line-14)">&#160;Cancel&#160;</text><text class="terminal-2877537115-r7" x="646.6" y="361.6" textLength="109.8" clip-path="url(#terminal-2877537115-line-14)">&#160;Confirm&#160;</text><text class="terminal-2877537115-r2" x="902.8" y="361.6" textLength="12.2" clip-path="url(#terminal-2877537115-line-14)">█</text><text class="terminal-2877537115-r1" x="1220" y="361.6" textLength="12.2" clip-path="url(#terminal-2877537115-line-14)">
</text><text class="terminal-2877537115-r2" x="305" y="386" textLength="12.2" clip-path="url(#terminal-2877537115-line-15)">█</text><text class="terminal-2877537115-r8" x="402.6" y="386" textLength="195.2" clip-path="url(#terminal-2877537115-line-15)">▁▁▁▁▁▁▁▁▁▁▁▁▁▁▁▁</text><text class="terminal-2877537115-r9" x="610" y="386" textLength="195.2" clip-path="url(#terminal-2877537115-line-15)">▁▁▁▁▁▁▁▁▁▁▁▁▁▁▁▁</text><text class="terminal-2877537115-r2" x="902.8" y="386" textLength="12.2" clip-path="url(#terminal-2877537115-line-15)">█</text><text class="terminal-2877537115-r1" x="1220" y="386" textLength="12.2" clip-path="url(#terminal-2877537115-line-15)">
</text><text class="terminal-2877537115-r2" x="305" y="410.4" textLength="12.2" clip-path="url(#terminal-2877537115-line-16)">█</text><text class="terminal-2877537115-r2" x="902.8" y="410.4" textLength="12.2" clip-path="url(#terminal-2877537115-line-16)">█</text><text class="terminal-2877537115-r1" x="1220" y="410.4" textLength="12.2" clip-path="url(#terminal-2877537115-line-16)">
</text><text class="terminal-2877537115-r2" x="305" y="434.8" textLength="12.2" clip-path="url(#terminal-2877537115-line-17)">█</text><text class="terminal-2877537115-r2" x="317.2" y="434.8" textLength="585.6" clip-path="url(#terminal-2877537115-line-17)">▄▄▄▄▄▄▄▄▄▄▄▄▄▄▄▄▄▄▄▄▄▄▄▄▄▄▄▄▄▄▄▄▄▄▄▄▄▄▄▄▄▄▄▄▄▄▄▄</text><text class="terminal-2877537115-r2" x="902.8" y="434.8" textLength="12.2" clip-path="url(#terminal-2877537115-line-17)">█</text><text class="terminal-2877537115-r1" x="1220" y="434.8" textLength="12.2" clip-path="url(#terminal-2877537115-line-17)">
</text><text class="terminal-2877537115-r1" x="1220" y="459.2" textLength="12.2" clip-path="url(#terminal-2877537115-line-18)">
</text><text class="terminal-2877537115-r1" x="1220" y="483.6" textLength="12.2" clip-path="url(#terminal-2877537115-line-19)">
</text><text class="terminal-2877537115-r1" x="1220" y="508" textLength="12.2" clip-path="url(#terminal-2877537115-line-20)">
</text><text class="terminal-2877537115-r1" x="1220" y="532.4" textLength="12.2" clip-path="url(#terminal-2877537115-line-21)">
</text><text class="terminal-2877537115-r1" x="1220" y="556.8" textLength="12.2" clip-path="url(#terminal-2877537115-line-22)">
</text><text class="terminal-2877537115-r1" x="1220" y="581.2" textLength="12.2" clip-path="url(#terminal-2877537115-line-23)">
</text><text class="terminal-2877537115-r1" x="1220" y="605.6" textLength="12.2" clip-path="url(#terminal-2877537115-line-24)">
</text><text class="terminal-2877537115-r1" x="1220" y="630" textLength="12.2" clip-path="url(#terminal-2877537115-line-25)">
</text><text class="terminal-2877537115-r1" x="1220" y="654.4" textLength="12.2" clip-path="url(#terminal-2877537115-line-26)">
</text>
    </g>
    </g>
</svg>
