<svg class="rich-terminal" viewBox="0 0 1238 733.1999999999999" xmlns="http://www.w3.org/2000/svg">
    <!-- Generated with Rich https://www.textualize.io -->
    <style>

    @font-face {
        font-family: "Fira Code";
        src: local("FiraCode-Regular"),
                url("https://cdnjs.cloudflare.com/ajax/libs/firacode/6.2.0/woff2/FiraCode-Regular.woff2") format("woff2"),
                url("https://cdnjs.cloudflare.com/ajax/libs/firacode/6.2.0/woff/FiraCode-Regular.woff") format("woff");
        font-style: normal;
        font-weight: 400;
    }
    @font-face {
        font-family: "Fira Code";
        src: local("FiraCode-Bold"),
                url("https://cdnjs.cloudflare.com/ajax/libs/firacode/6.2.0/woff2/FiraCode-Bold.woff2") format("woff2"),
                url("https://cdnjs.cloudflare.com/ajax/libs/firacode/6.2.0/woff/FiraCode-Bold.woff") format("woff");
        font-style: bold;
        font-weight: 700;
    }

    .terminal-1769845449-matrix {
        font-family: Fira Code, monospace;
        font-size: 20px;
        line-height: 24.4px;
        font-variant-east-asian: full-width;
    }

    .terminal-1769845449-title {
        font-size: 18px;
        font-weight: bold;
        font-family: arial;
    }

    .terminal-1769845449-r1 { fill: #c5c8c6 }
.terminal-1769845449-r2 { fill: #0178d4 }
.terminal-1769845449-r3 { fill: #e0e0e0;font-weight: bold }
.terminal-1769845449-r4 { fill: #272727 }
.terminal-1769845449-r5 { fill: #dde6ed;font-weight: bold }
.terminal-1769845449-r6 { fill: #e0e0e0 }
.terminal-1769845449-r7 { fill: #a5a5a5 }
    </style>

    <defs>
    <clipPath id="terminal-1769845449-clip-terminal">
      <rect x="0" y="0" width="1219.0" height="682.1999999999999" />
    </clipPath>
    <clipPath id="terminal-1769845449-line-0">
    <rect x="0" y="1.5" width="1220" height="24.65"/>
            </clipPath>
<clipPath id="terminal-1769845449-line-1">
    <rect x="0" y="25.9" width="1220" height="24.65"/>
            </clipPath>
<clipPath id="terminal-1769845449-line-2">
    <rect x="0" y="50.3" width="1220" height="24.65"/>
            </clipPath>
<clipPath id="terminal-1769845449-line-3">
    <rect x="0" y="74.7" width="1220" height="24.65"/>
            </clipPath>
<clipPath id="terminal-1769845449-line-4">
    <rect x="0" y="99.1" width="1220" height="24.65"/>
            </clipPath>
<clipPath id="terminal-1769845449-line-5">
    <rect x="0" y="123.5" width="1220" height="24.65"/>
            </clipPath>
<clipPath id="terminal-1769845449-line-6">
    <rect x="0" y="147.9" width="1220" height="24.65"/>
            </clipPath>
<clipPath id="terminal-1769845449-line-7">
    <rect x="0" y="172.3" width="1220" height="24.65"/>
            </clipPath>
<clipPath id="terminal-1769845449-line-8">
    <rect x="0" y="196.7" width="1220" height="24.65"/>
            </clipPath>
<clipPath id="terminal-1769845449-line-9">
    <rect x="0" y="221.1" width="1220" height="24.65"/>
            </clipPath>
<clipPath id="terminal-1769845449-line-10">
    <rect x="0" y="245.5" width="1220" height="24.65"/>
            </clipPath>
<clipPath id="terminal-1769845449-line-11">
    <rect x="0" y="269.9" width="1220" height="24.65"/>
            </clipPath>
<clipPath id="terminal-1769845449-line-12">
    <rect x="0" y="294.3" width="1220" height="24.65"/>
            </clipPath>
<clipPath id="terminal-1769845449-line-13">
    <rect x="0" y="318.7" width="1220" height="24.65"/>
            </clipPath>
<clipPath id="terminal-1769845449-line-14">
    <rect x="0" y="343.1" width="1220" height="24.65"/>
            </clipPath>
<clipPath id="terminal-1769845449-line-15">
    <rect x="0" y="367.5" width="1220" height="24.65"/>
            </clipPath>
<clipPath id="terminal-1769845449-line-16">
    <rect x="0" y="391.9" width="1220" height="24.65"/>
            </clipPath>
<clipPath id="terminal-1769845449-line-17">
    <rect x="0" y="416.3" width="1220" height="24.65"/>
            </clipPath>
<clipPath id="terminal-1769845449-line-18">
    <rect x="0" y="440.7" width="1220" height="24.65"/>
            </clipPath>
<clipPath id="terminal-1769845449-line-19">
    <rect x="0" y="465.1" width="1220" height="24.65"/>
            </clipPath>
<clipPath id="terminal-1769845449-line-20">
    <rect x="0" y="489.5" width="1220" height="24.65"/>
            </clipPath>
<clipPath id="terminal-1769845449-line-21">
    <rect x="0" y="513.9" width="1220" height="24.65"/>
            </clipPath>
<clipPath id="terminal-1769845449-line-22">
    <rect x="0" y="538.3" width="1220" height="24.65"/>
            </clipPath>
<clipPath id="terminal-1769845449-line-23">
    <rect x="0" y="562.7" width="1220" height="24.65"/>
            </clipPath>
<clipPath id="terminal-1769845449-line-24">
    <rect x="0" y="587.1" width="1220" height="24.65"/>
            </clipPath>
<clipPath id="terminal-1769845449-line-25">
    <rect x="0" y="611.5" width="1220" height="24.65"/>
            </clipPath>
<clipPath id="terminal-1769845449-line-26">
    <rect x="0" y="635.9" width="1220" height="24.65"/>
            </clipPath>
    </defs>

    <rect fill="#292929" stroke="rgba(255,255,255,0.35)" stroke-width="1" x="1" y="1" width="1236" height="731.2" rx="8"/><text class="terminal-1769845449-title" fill="#c5c8c6" text-anchor="middle" x="618" y="27">Ollama&#160;TUI&#160;v0.2.0</text>
            <g transform="translate(26,22)">
            <circle cx="0" cy="0" r="7" fill="#ff5f57"/>
            <circle cx="22" cy="0" r="7" fill="#febc2e"/>
            <circle cx="44" cy="0" r="7" fill="#28c840"/>
            </g>
        
    <g transform="translate(9, 41)" clip-path="url(#terminal-1769845449-clip-terminal)">
    <rect fill="#1e1e1e" x="0" y="1.5" width="1220" height="24.65" shape-rendering="crispEdges"/><rect fill="#1e1e1e" x="0" y="25.9" width="1220" height="24.65" shape-rendering="crispEdges"/><rect fill="#1e1e1e" x="0" y="50.3" width="1220" height="24.65" shape-rendering="crispEdges"/><rect fill="#1e1e1e" x="0" y="74.7" width="183" height="24.65" shape-rendering="crispEdges"/><rect fill="#1e1e1e" x="183" y="74.7" width="12.2" height="24.65" shape-rendering="crispEdges"/><rect fill="#1e1e1e" x="195.2" y="74.7" width="829.6" height="24.65" shape-rendering="crispEdges"/><rect fill="#1e1e1e" x="1024.8" y="74.7" width="12.2" height="24.65" shape-rendering="crispEdges"/><rect fill="#1e1e1e" x="1037" y="74.7" width="183" height="24.65" shape-rendering="crispEdges"/><rect fill="#1e1e1e" x="0" y="99.1" width="183" height="24.65" shape-rendering="crispEdges"/><rect fill="#1e1e1e" x="183" y="99.1" width="12.2" height="24.65" shape-rendering="crispEdges"/><rect fill="#1e1e1e" x="195.2" y="99.1" width="829.6" height="24.65" shape-rendering="crispEdges"/><rect fill="#1e1e1e" x="1024.8" y="99.1" width="12.2" height="24.65" shape-rendering="crispEdges"/><rect fill="#1e1e1e" x="1037" y="99.1" width="183" height="24.65" shape-rendering="crispEdges"/><rect fill="#1e1e1e" x="0" y="123.5" width="183" height="24.65" shape-rendering="crispEdges"/><rect fill="#1e1e1e" x="183" y="123.5" width="12.2" height="24.65" shape-rendering="crispEdges"/><rect fill="#1e1e1e" x="195.2" y="123.5" width="24.4" height="24.65" shape-rendering="crispEdges"/><rect fill="#1e1e1e" x="219.6" y="123.5" width="341.6" height="24.65" shape-rendering="crispEdges"/><rect fill="#1e1e1e" x="561.2" y="123.5" width="439.2" height="24.65" shape-rendering="crispEdges"/><rect fill="#1e1e1e" x="1000.4" y="123.5" width="24.4" height="24.65" shape-rendering="crispEdges"/><rect fill="#1e1e1e" x="1024.8" y="123.5" width="12.2" height="24.65" shape-rendering="crispEdges"/><rect fill="#1e1e1e" x="1037" y="123.5" width="183" height="24.65" shape-rendering="crispEdges"/><rect fill="#1e1e1e" x="0" y="147.9" width="183" height="24.65" shape-rendering="crispEdges"/><rect fill="#1e1e1e" x="183" y="147.9" width="12.2" height="24.65" shape-rendering="crispEdges"/><rect fill="#1e1e1e" x="195.2" y="147.9" width="24.4" height="24.65" shape-rendering="crispEdges"/><rect fill="#1e1e1e" x="219.6" y="147.9" width="780.8" height="24.65" shape-rendering="crispEdges"/><rect fill="#1e1e1e" x="1000.4" y="147.9" width="24.4" height="24.65" shape-rendering="crispEdges"/><rect fill="#1e1e1e" x="1024.8" y="147.9" width="12.2" height="24.65" shape-rendering="crispEdges"/><rect fill="#1e1e1e" x="1037" y="147.9" width="183" height="24.65" shape-rendering="crispEdges"/><rect fill="#1e1e1e" x="0" y="172.3" width="183" height="24.65" shape-rendering="crispEdges"/><rect fill="#1e1e1e" x="183" y="172.3" width="12.2" height="24.65" shape-rendering="crispEdges"/><rect fill="#1e1e1e" x="195.2" y="172.3" width="24.4" height="24.65" shape-rendering="crispEdges"/><rect fill="#0c7dd4" x="219.6" y="172.3" width="256.2" height="24.65" shape-rendering="crispEdges"/><rect fill="#0c7dd4" x="475.8" y="172.3" width="85.4" height="24.65" shape-rendering="crispEdges"/><rect fill="#0c7dd4" x="561.2" y="172.3" width="414.8" height="24.65" shape-rendering="crispEdges"/><rect fill="#003054" x="976" y="172.3" width="24.4" height="24.65" shape-rendering="crispEdges"/><rect fill="#1e1e1e" x="1000.4" y="172.3" width="24.4" height="24.65" shape-rendering="crispEdges"/><rect fill="#1e1e1e" x="1024.8" y="172.3" width="12.2" height="24.65" shape-rendering="crispEdges"/><rect fill="#1e1e1e" x="1037" y="172.3" width="183" height="24.65" shape-rendering="crispEdges"/><rect fill="#1e1e1e" x="0" y="196.7" width="183" height="24.65" shape-rendering="crispEdges"/><rect fill="#1e1e1e" x="183" y="196.7" width="12.2" height="24.65" shape-rendering="crispEdges"/><rect fill="#1e1e1e" x="195.2" y="196.7" width="24.4" height="24.65" shape-rendering="crispEdges"/><rect fill="#004578" x="219.6" y="196.7" width="256.2" height="24.65" shape-rendering="crispEdges"/><rect fill="#004578" x="475.8" y="196.7" width="85.4" height="24.65" shape-rendering="crispEdges"/><rect fill="#004578" x="561.2" y="196.7" width="414.8" height="24.65" shape-rendering="crispEdges"/><rect fill="#000000" x="976" y="196.7" width="24.4" height="24.65" shape-rendering="crispEdges"/><rect fill="#1e1e1e" x="1000.4" y="196.7" width="24.4" height="24.65" shape-rendering="crispEdges"/><rect fill="#1e1e1e" x="1024.8" y="196.7" width="12.2" height="24.65" shape-rendering="crispEdges"/><rect fill="#1e1e1e" x="1037" y="196.7" width="183" height="24.65" shape-rendering="crispEdges"/><rect fill="#1e1e1e" x="0" y="221.1" width="183" height="24.65" shape-rendering="crispEdges"/><rect fill="#1e1e1e" x="183" y="221.1" width="12.2" height="24.65" shape-rendering="crispEdges"/><rect fill="#1e1e1e" x="195.2" y="221.1" width="24.4" height="24.65" shape-rendering="crispEdges"/><rect fill="#272727" x="219.6" y="221.1" width="256.2" height="24.65" shape-rendering="crispEdges"/><rect fill="#272727" x="475.8" y="221.1" width="85.4" height="24.65" shape-rendering="crispEdges"/><rect fill="#272727" x="561.2" y="221.1" width="414.8" height="24.65" shape-rendering="crispEdges"/><rect fill="#000000" x="976" y="221.1" width="24.4" height="24.65" shape-rendering="crispEdges"/><rect fill="#1e1e1e" x="1000.4" y="221.1" width="24.4" height="24.65" shape-rendering="crispEdges"/><rect fill="#1e1e1e" x="1024.8" y="221.1" width="12.2" height="24.65" shape-rendering="crispEdges"/><rect fill="#1e1e1e" x="1037" y="221.1" width="183" height="24.65" shape-rendering="crispEdges"/><rect fill="#1e1e1e" x="0" y="245.5" width="183" height="24.65" shape-rendering="crispEdges"/><rect fill="#1e1e1e" x="183" y="245.5" width="12.2" height="24.65" shape-rendering="crispEdges"/><rect fill="#1e1e1e" x="195.2" y="245.5" width="24.4" height="24.65" shape-rendering="crispEdges"/><rect fill="#272727" x="219.6" y="245.5" width="256.2" height="24.65" shape-rendering="crispEdges"/><rect fill="#272727" x="475.8" y="245.5" width="85.4" height="24.65" shape-rendering="crispEdges"/><rect fill="#272727" x="561.2" y="245.5" width="414.8" height="24.65" shape-rendering="crispEdges"/><rect fill="#000000" x="976" y="245.5" width="24.4" height="24.65" shape-rendering="crispEdges"/><rect fill="#1e1e1e" x="1000.4" y="245.5" width="24.4" height="24.65" shape-rendering="crispEdges"/><rect fill="#1e1e1e" x="1024.8" y="245.5" width="12.2" height="24.65" shape-rendering="crispEdges"/><rect fill="#1e1e1e" x="1037" y="245.5" width="183" height="24.65" shape-rendering="crispEdges"/><rect fill="#1e1e1e" x="0" y="269.9" width="183" height="24.65" shape-rendering="crispEdges"/><rect fill="#1e1e1e" x="183" y="269.9" width="12.2" height="24.65" shape-rendering="crispEdges"/><rect fill="#1e1e1e" x="195.2" y="269.9" width="24.4" height="24.65" shape-rendering="crispEdges"/><rect fill="#272727" x="219.6" y="269.9" width="256.2" height="24.65" shape-rendering="crispEdges"/><rect fill="#272727" x="475.8" y="269.9" width="85.4" height="24.65" shape-rendering="crispEdges"/><rect fill="#272727" x="561.2" y="269.9" width="414.8" height="24.65" shape-rendering="crispEdges"/><rect fill="#000000" x="976" y="269.9" width="24.4" height="24.65" shape-rendering="crispEdges"/><rect fill="#1e1e1e" x="1000.4" y="269.9" width="24.4" height="24.65" shape-rendering="crispEdges"/><rect fill="#1e1e1e" x="1024.8" y="269.9" width="12.2" height="24.65" shape-rendering="crispEdges"/><rect fill="#1e1e1e" x="1037" y="269.9" width="183" height="24.65" shape-rendering="crispEdges"/><rect fill="#1e1e1e" x="0" y="294.3" width="183" height="24.65" shape-rendering="crispEdges"/><rect fill="#1e1e1e" x="183" y="294.3" width="12.2" height="24.65" shape-rendering="crispEdges"/><rect fill="#1e1e1e" x="195.2" y="294.3" width="24.4" height="24.65" shape-rendering="crispEdges"/><rect fill="#272727" x="219.6" y="294.3" width="256.2" height="24.65" shape-rendering="crispEdges"/><rect fill="#272727" x="475.8" y="294.3" width="85.4" height="24.65" shape-rendering="crispEdges"/><rect fill="#272727" x="561.2" y="294.3" width="414.8" height="24.65" shape-rendering="crispEdges"/><rect fill="#000000" x="976" y="294.3" width="24.4" height="24.65" shape-rendering="crispEdges"/><rect fill="#1e1e1e" x="1000.4" y="294.3" width="24.4" height="24.65" shape-rendering="crispEdges"/><rect fill="#1e1e1e" x="1024.8" y="294.3" width="12.2" height="24.65" shape-rendering="crispEdges"/><rect fill="#1e1e1e" x="1037" y="294.3" width="183" height="24.65" shape-rendering="crispEdges"/><rect fill="#1e1e1e" x="0" y="318.7" width="183" height="24.65" shape-rendering="crispEdges"/><rect fill="#1e1e1e" x="183" y="318.7" width="12.2" height="24.65" shape-rendering="crispEdges"/><rect fill="#1e1e1e" x="195.2" y="318.7" width="24.4" height="24.65" shape-rendering="crispEdges"/><rect fill="#272727" x="219.6" y="318.7" width="256.2" height="24.65" shape-rendering="crispEdges"/><rect fill="#272727" x="475.8" y="318.7" width="85.4" height="24.65" shape-rendering="crispEdges"/><rect fill="#272727" x="561.2" y="318.7" width="414.8" height="24.65" shape-rendering="crispEdges"/><rect fill="#000000" x="976" y="318.7" width="24.4" height="24.65" shape-rendering="crispEdges"/><rect fill="#1e1e1e" x="1000.4" y="318.7" width="24.4" height="24.65" shape-rendering="crispEdges"/><rect fill="#1e1e1e" x="1024.8" y="318.7" width="12.2" height="24.65" shape-rendering="crispEdges"/><rect fill="#1e1e1e" x="1037" y="318.7" width="183" height="24.65" shape-rendering="crispEdges"/><rect fill="#1e1e1e" x="0" y="343.1" width="183" height="24.65" shape-rendering="crispEdges"/><rect fill="#1e1e1e" x="183" y="343.1" width="12.2" height="24.65" shape-rendering="crispEdges"/><rect fill="#1e1e1e" x="195.2" y="343.1" width="24.4" height="24.65" shape-rendering="crispEdges"/><rect fill="#272727" x="219.6" y="343.1" width="256.2" height="24.65" shape-rendering="crispEdges"/><rect fill="#272727" x="475.8" y="343.1" width="85.4" height="24.65" shape-rendering="crispEdges"/><rect fill="#272727" x="561.2" y="343.1" width="414.8" height="24.65" shape-rendering="crispEdges"/><rect fill="#000000" x="976" y="343.1" width="24.4" height="24.65" shape-rendering="crispEdges"/><rect fill="#1e1e1e" x="1000.4" y="343.1" width="24.4" height="24.65" shape-rendering="crispEdges"/><rect fill="#1e1e1e" x="1024.8" y="343.1" width="12.2" height="24.65" shape-rendering="crispEdges"/><rect fill="#1e1e1e" x="1037" y="343.1" width="183" height="24.65" shape-rendering="crispEdges"/><rect fill="#1e1e1e" x="0" y="367.5" width="183" height="24.65" shape-rendering="crispEdges"/><rect fill="#1e1e1e" x="183" y="367.5" width="12.2" height="24.65" shape-rendering="crispEdges"/><rect fill="#1e1e1e" x="195.2" y="367.5" width="24.4" height="24.65" shape-rendering="crispEdges"/><rect fill="#272727" x="219.6" y="367.5" width="256.2" height="24.65" shape-rendering="crispEdges"/><rect fill="#272727" x="475.8" y="367.5" width="85.4" height="24.65" shape-rendering="crispEdges"/><rect fill="#272727" x="561.2" y="367.5" width="414.8" height="24.65" shape-rendering="crispEdges"/><rect fill="#000000" x="976" y="367.5" width="24.4" height="24.65" shape-rendering="crispEdges"/><rect fill="#1e1e1e" x="1000.4" y="367.5" width="24.4" height="24.65" shape-rendering="crispEdges"/><rect fill="#1e1e1e" x="1024.8" y="367.5" width="12.2" height="24.65" shape-rendering="crispEdges"/><rect fill="#1e1e1e" x="1037" y="367.5" width="183" height="24.65" shape-rendering="crispEdges"/><rect fill="#1e1e1e" x="0" y="391.9" width="183" height="24.65" shape-rendering="crispEdges"/><rect fill="#1e1e1e" x="183" y="391.9" width="12.2" height="24.65" shape-rendering="crispEdges"/><rect fill="#1e1e1e" x="195.2" y="391.9" width="24.4" height="24.65" shape-rendering="crispEdges"/><rect fill="#272727" x="219.6" y="391.9" width="256.2" height="24.65" shape-rendering="crispEdges"/><rect fill="#272727" x="475.8" y="391.9" width="85.4" height="24.65" shape-rendering="crispEdges"/><rect fill="#272727" x="561.2" y="391.9" width="414.8" height="24.65" shape-rendering="crispEdges"/><rect fill="#000000" x="976" y="391.9" width="24.4" height="24.65" shape-rendering="crispEdges"/><rect fill="#1e1e1e" x="1000.4" y="391.9" width="24.4" height="24.65" shape-rendering="crispEdges"/><rect fill="#1e1e1e" x="1024.8" y="391.9" width="12.2" height="24.65" shape-rendering="crispEdges"/><rect fill="#1e1e1e" x="1037" y="391.9" width="183" height="24.65" shape-rendering="crispEdges"/><rect fill="#1e1e1e" x="0" y="416.3" width="183" height="24.65" shape-rendering="crispEdges"/><rect fill="#1e1e1e" x="183" y="416.3" width="12.2" height="24.65" shape-rendering="crispEdges"/><rect fill="#1e1e1e" x="195.2" y="416.3" width="24.4" height="24.65" shape-rendering="crispEdges"/><rect fill="#272727" x="219.6" y="416.3" width="256.2" height="24.65" shape-rendering="crispEdges"/><rect fill="#272727" x="475.8" y="416.3" width="85.4" height="24.65" shape-rendering="crispEdges"/><rect fill="#272727" x="561.2" y="416.3" width="414.8" height="24.65" shape-rendering="crispEdges"/><rect fill="#000000" x="976" y="416.3" width="24.4" height="24.65" shape-rendering="crispEdges"/><rect fill="#1e1e1e" x="1000.4" y="416.3" width="24.4" height="24.65" shape-rendering="crispEdges"/><rect fill="#1e1e1e" x="1024.8" y="416.3" width="12.2" height="24.65" shape-rendering="crispEdges"/><rect fill="#1e1e1e" x="1037" y="416.3" width="183" height="24.65" shape-rendering="crispEdges"/><rect fill="#1e1e1e" x="0" y="440.7" width="183" height="24.65" shape-rendering="crispEdges"/><rect fill="#1e1e1e" x="183" y="440.7" width="12.2" height="24.65" shape-rendering="crispEdges"/><rect fill="#1e1e1e" x="195.2" y="440.7" width="24.4" height="24.65" shape-rendering="crispEdges"/><rect fill="#272727" x="219.6" y="440.7" width="256.2" height="24.65" shape-rendering="crispEdges"/><rect fill="#272727" x="475.8" y="440.7" width="85.4" height="24.65" shape-rendering="crispEdges"/><rect fill="#272727" x="561.2" y="440.7" width="414.8" height="24.65" shape-rendering="crispEdges"/><rect fill="#000000" x="976" y="440.7" width="24.4" height="24.65" shape-rendering="crispEdges"/><rect fill="#1e1e1e" x="1000.4" y="440.7" width="24.4" height="24.65" shape-rendering="crispEdges"/><rect fill="#1e1e1e" x="1024.8" y="440.7" width="12.2" height="24.65" shape-rendering="crispEdges"/><rect fill="#1e1e1e" x="1037" y="440.7" width="183" height="24.65" shape-rendering="crispEdges"/><rect fill="#1e1e1e" x="0" y="465.1" width="183" height="24.65" shape-rendering="crispEdges"/><rect fill="#1e1e1e" x="183" y="465.1" width="12.2" height="24.65" shape-rendering="crispEdges"/><rect fill="#1e1e1e" x="195.2" y="465.1" width="24.4" height="24.65" shape-rendering="crispEdges"/><rect fill="#272727" x="219.6" y="465.1" width="256.2" height="24.65" shape-rendering="crispEdges"/><rect fill="#272727" x="475.8" y="465.1" width="85.4" height="24.65" shape-rendering="crispEdges"/><rect fill="#272727" x="561.2" y="465.1" width="414.8" height="24.65" shape-rendering="crispEdges"/><rect fill="#000000" x="976" y="465.1" width="24.4" height="24.65" shape-rendering="crispEdges"/><rect fill="#1e1e1e" x="1000.4" y="465.1" width="24.4" height="24.65" shape-rendering="crispEdges"/><rect fill="#1e1e1e" x="1024.8" y="465.1" width="12.2" height="24.65" shape-rendering="crispEdges"/><rect fill="#1e1e1e" x="1037" y="465.1" width="183" height="24.65" shape-rendering="crispEdges"/><rect fill="#1e1e1e" x="0" y="489.5" width="183" height="24.65" shape-rendering="crispEdges"/><rect fill="#1e1e1e" x="183" y="489.5" width="12.2" height="24.65" shape-rendering="crispEdges"/><rect fill="#1e1e1e" x="195.2" y="489.5" width="24.4" height="24.65" shape-rendering="crispEdges"/><rect fill="#272727" x="219.6" y="489.5" width="256.2" height="24.65" shape-rendering="crispEdges"/><rect fill="#272727" x="475.8" y="489.5" width="85.4" height="24.65" shape-rendering="crispEdges"/><rect fill="#272727" x="561.2" y="489.5" width="414.8" height="24.65" shape-rendering="crispEdges"/><rect fill="#000000" x="976" y="489.5" width="24.4" height="24.65" shape-rendering="crispEdges"/><rect fill="#1e1e1e" x="1000.4" y="489.5" width="24.4" height="24.65" shape-rendering="crispEdges"/><rect fill="#1e1e1e" x="1024.8" y="489.5" width="12.2" height="24.65" shape-rendering="crispEdges"/><rect fill="#1e1e1e" x="1037" y="489.5" width="183" height="24.65" shape-rendering="crispEdges"/><rect fill="#1e1e1e" x="0" y="513.9" width="183" height="24.65" shape-rendering="crispEdges"/><rect fill="#1e1e1e" x="183" y="513.9" width="12.2" height="24.65" shape-rendering="crispEdges"/><rect fill="#1e1e1e" x="195.2" y="513.9" width="24.4" height="24.65" shape-rendering="crispEdges"/><rect fill="#1e1e1e" x="219.6" y="513.9" width="780.8" height="24.65" shape-rendering="crispEdges"/><rect fill="#1e1e1e" x="1000.4" y="513.9" width="24.4" height="24.65" shape-rendering="crispEdges"/><rect fill="#1e1e1e" x="1024.8" y="513.9" width="12.2" height="24.65" shape-rendering="crispEdges"/><rect fill="#1e1e1e" x="1037" y="513.9" width="183" height="24.65" shape-rendering="crispEdges"/><rect fill="#1e1e1e" x="0" y="538.3" width="183" height="24.65" shape-rendering="crispEdges"/><rect fill="#1e1e1e" x="183" y="538.3" width="12.2" height="24.65" shape-rendering="crispEdges"/><rect fill="#1e1e1e" x="195.2" y="538.3" width="24.4" height="24.65" shape-rendering="crispEdges"/><rect fill="#1e1e1e" x="219.6" y="538.3" width="219.6" height="24.65" shape-rendering="crispEdges"/><rect fill="#1e1e1e" x="439.2" y="538.3" width="329.4" height="24.65" shape-rendering="crispEdges"/><rect fill="#1e1e1e" x="768.6" y="538.3" width="231.8" height="24.65" shape-rendering="crispEdges"/><rect fill="#1e1e1e" x="1000.4" y="538.3" width="24.4" height="24.65" shape-rendering="crispEdges"/><rect fill="#1e1e1e" x="1024.8" y="538.3" width="12.2" height="24.65" shape-rendering="crispEdges"/><rect fill="#1e1e1e" x="1037" y="538.3" width="183" height="24.65" shape-rendering="crispEdges"/><rect fill="#1e1e1e" x="0" y="562.7" width="183" height="24.65" shape-rendering="crispEdges"/><rect fill="#1e1e1e" x="183" y="562.7" width="12.2" height="24.65" shape-rendering="crispEdges"/><rect fill="#1e1e1e" x="195.2" y="562.7" width="829.6" height="24.65" shape-rendering="crispEdges"/><rect fill="#1e1e1e" x="1024.8" y="562.7" width="12.2" height="24.65" shape-rendering="crispEdges"/><rect fill="#1e1e1e" x="1037" y="562.7" width="183" height="24.65" shape-rendering="crispEdges"/><rect fill="#1e1e1e" x="0" y="587.1" width="183" height="24.65" shape-rendering="crispEdges"/><rect fill="#1e1e1e" x="183" y="587.1" width="12.2" height="24.65" shape-rendering="crispEdges"/><rect fill="#1e1e1e" x="195.2" y="587.1" width="829.6" height="24.65" shape-rendering="crispEdges"/><rect fill="#1e1e1e" x="1024.8" y="587.1" width="12.2" height="24.65" shape-rendering="crispEdges"/><rect fill="#1e1e1e" x="1037" y="587.1" width="183" height="24.65" shape-rendering="crispEdges"/><rect fill="#1e1e1e" x="0" y="611.5" width="1220" height="24.65" shape-rendering="crispEdges"/><rect fill="#1e1e1e" x="0" y="635.9" width="1220" height="24.65" shape-rendering="crispEdges"/><rect fill="#1e1e1e" x="0" y="660.3" width="1220" height="24.65" shape-rendering="crispEdges"/>
    <g class="terminal-1769845449-matrix">
    <text class="terminal-1769845449-r1" x="1220" y="20" textLength="12.2" clip-path="url(#terminal-1769845449-line-0)">
</text><text class="terminal-1769845449-r1" x="1220" y="44.4" textLength="12.2" clip-path="url(#terminal-1769845449-line-1)">
</text><text class="terminal-1769845449-r1" x="1220" y="68.8" textLength="12.2" clip-path="url(#terminal-1769845449-line-2)">
</text><text class="terminal-1769845449-r2" x="183" y="93.2" textLength="12.2" clip-path="url(#terminal-1769845449-line-3)">┌</text><text class="terminal-1769845449-r2" x="195.2" y="93.2" textLength="829.6" clip-path="url(#terminal-1769845449-line-3)">────────────────────────────────────────────────────────────────────</text><text class="terminal-1769845449-r2" x="1024.8" y="93.2" textLength="12.2" clip-path="url(#terminal-1769845449-line-3)">┐</text><text class="terminal-1769845449-r1" x="1220" y="93.2" textLength="12.2" clip-path="url(#terminal-1769845449-line-3)">
</text><text class="terminal-1769845449-r2" x="183" y="117.6" textLength="12.2" clip-path="url(#terminal-1769845449-line-4)">│</text><text class="terminal-1769845449-r2" x="1024.8" y="117.6" textLength="12.2" clip-path="url(#terminal-1769845449-line-4)">│</text><text class="terminal-1769845449-r1" x="1220" y="117.6" textLength="12.2" clip-path="url(#terminal-1769845449-line-4)">
</text><text class="terminal-1769845449-r2" x="183" y="142" textLength="12.2" clip-path="url(#terminal-1769845449-line-5)">│</text><text class="terminal-1769845449-r3" x="219.6" y="142" textLength="341.6" clip-path="url(#terminal-1769845449-line-5)">Select&#160;version&#160;for&#160;codellama</text><text class="terminal-1769845449-r2" x="1024.8" y="142" textLength="12.2" clip-path="url(#terminal-1769845449-line-5)">│</text><text class="terminal-1769845449-r1" x="1220" y="142" textLength="12.2" clip-path="url(#terminal-1769845449-line-5)">
</text><text class="terminal-1769845449-r2" x="183" y="166.4" textLength="12.2" clip-path="url(#terminal-1769845449-line-6)">│</text><text class="terminal-1769845449-r2" x="1024.8" y="166.4" textLength="12.2" clip-path="url(#terminal-1769845449-line-6)">│</text><text class="terminal-1769845449-r1" x="1220" y="166.4" textLength="12.2" clip-path="url(#terminal-1769845449-line-6)">
</text><text class="terminal-1769845449-r2" x="183" y="190.8" textLength="12.2" clip-path="url(#terminal-1769845449-line-7)">│</text><text class="terminal-1769845449-r3" x="219.6" y="190.8" textLength="256.2" clip-path="url(#terminal-1769845449-line-7)">&#160;Tag&#160;&#160;&#160;&#160;&#160;&#160;&#160;&#160;&#160;&#160;&#160;&#160;&#160;&#160;&#160;&#160;&#160;</text><text class="terminal-1769845449-r3" x="475.8" y="190.8" textLength="85.4" clip-path="url(#terminal-1769845449-line-7)">&#160;Size&#160;&#160;</text><text class="terminal-1769845449-r2" x="1024.8" y="190.8" textLength="12.2" clip-path="url(#terminal-1769845449-line-7)">│</text><text class="terminal-1769845449-r1" x="1220" y="190.8" textLength="12.2" clip-path="url(#terminal-1769845449-line-7)">
</text><text class="terminal-1769845449-r2" x="183" y="215.2" textLength="12.2" clip-path="url(#terminal-1769845449-line-8)">│</text><text class="terminal-1769845449-r5" x="219.6" y="215.2" textLength="256.2" clip-path="url(#terminal-1769845449-line-8)">&#160;latest&#160;&#160;&#160;&#160;&#160;&#160;&#160;&#160;&#160;&#160;&#160;&#160;&#160;&#160;</text><text class="terminal-1769845449-r5" x="475.8" y="215.2" textLength="85.4" clip-path="url(#terminal-1769845449-line-8)">&#160;3.8GB&#160;</text><text class="terminal-1769845449-r2" x="1024.8" y="215.2" textLength="12.2" clip-path="url(#terminal-1769845449-line-8)">│</text><text class="terminal-1769845449-r1" x="1220" y="215.2" textLength="12.2" clip-path="url(#terminal-1769845449-line-8)">
</text><text class="terminal-1769845449-r2" x="183" y="239.6" textLength="12.2" clip-path="url(#terminal-1769845449-line-9)">│</text><text class="terminal-1769845449-r6" x="219.6" y="239.6" textLength="256.2" clip-path="url(#terminal-1769845449-line-9)">&#160;code&#160;&#160;&#160;&#160;&#160;&#160;&#160;&#160;&#160;&#160;&#160;&#160;&#160;&#160;&#160;&#160;</text><text class="terminal-1769845449-r6" x="475.8" y="239.6" textLength="85.4" clip-path="url(#terminal-1769845449-line-9)">&#160;3.8GB&#160;</text><text class="terminal-1769845449-r2" x="1024.8" y="239.6" textLength="12.2" clip-path="url(#terminal-1769845449-line-9)">│</text><text class="terminal-1769845449-r1" x="1220" y="239.6" textLength="12.2" clip-path="url(#terminal-1769845449-line-9)">
</text><text class="terminal-1769845449-r2" x="183" y="264" textLength="12.2" clip-path="url(#terminal-1769845449-line-10)">│</text><text class="terminal-1769845449-r6" x="219.6" y="264" textLength="256.2" clip-path="url(#terminal-1769845449-line-10)">&#160;instruct&#160;&#160;&#160;&#160;&#160;&#160;&#160;&#160;&#160;&#160;&#160;&#160;</text><text class="terminal-1769845449-r6" x="475.8" y="264" textLength="85.4" clip-path="url(#terminal-1769845449-line-10)">&#160;3.8GB&#160;</text><text class="terminal-1769845449-r2" x="1024.8" y="264" textLength="12.2" clip-path="url(#terminal-1769845449-line-10)">│</text><text class="terminal-1769845449-r1" x="1220" y="264" textLength="12.2" clip-path="url(#terminal-1769845449-line-10)">
</text><text class="terminal-1769845449-r2" x="183" y="288.4" textLength="12.2" clip-path="url(#terminal-1769845449-line-11)">│</text><text class="terminal-1769845449-r6" x="219.6" y="288.4" textLength="256.2" clip-path="url(#terminal-1769845449-line-11)">&#160;python&#160;&#160;&#160;&#160;&#160;&#160;&#160;&#160;&#160;&#160;&#160;&#160;&#160;&#160;</text><text class="terminal-1769845449-r6" x="475.8" y="288.4" textLength="85.4" clip-path="url(#terminal-1769845449-line-11)">&#160;3.8GB&#160;</text><text class="terminal-1769845449-r2" x="1024.8" y="288.4" textLength="12.2" clip-path="url(#terminal-1769845449-line-11)">│</text><text class="terminal-1769845449-r1" x="1220" y="288.4" textLength="12.2" clip-path="url(#terminal-1769845449-line-11)">
</text><text class="terminal-1769845449-r2" x="183" y="312.8" textLength="12.2" clip-path="url(#terminal-1769845449-line-12)">│</text><text class="terminal-1769845449-r6" x="219.6" y="312.8" textLength="256.2" clip-path="url(#terminal-1769845449-line-12)">&#160;7b&#160;&#160;&#160;&#160;&#160;&#160;&#160;&#160;&#160;&#160;&#160;&#160;&#160;&#160;&#160;&#160;&#160;&#160;</text><text class="terminal-1769845449-r6" x="475.8" y="312.8" textLength="85.4" clip-path="url(#terminal-1769845449-line-12)">&#160;3.8GB&#160;</text><text class="terminal-1769845449-r2" x="1024.8" y="312.8" textLength="12.2" clip-path="url(#terminal-1769845449-line-12)">│</text><text class="terminal-1769845449-r1" x="1220" y="312.8" textLength="12.2" clip-path="url(#terminal-1769845449-line-12)">
</text><text class="terminal-1769845449-r2" x="183" y="337.2" textLength="12.2" clip-path="url(#terminal-1769845449-line-13)">│</text><text class="terminal-1769845449-r6" x="219.6" y="337.2" textLength="256.2" clip-path="url(#terminal-1769845449-line-13)">&#160;13b&#160;&#160;&#160;&#160;&#160;&#160;&#160;&#160;&#160;&#160;&#160;&#160;&#160;&#160;&#160;&#160;&#160;</text><text class="terminal-1769845449-r6" x="475.8" y="337.2" textLength="85.4" clip-path="url(#terminal-1769845449-line-13)">&#160;7.4GB&#160;</text><text class="terminal-1769845449-r2" x="1024.8" y="337.2" textLength="12.2" clip-path="url(#terminal-1769845449-line-13)">│</text><text class="terminal-1769845449-r1" x="1220" y="337.2" textLength="12.2" clip-path="url(#terminal-1769845449-line-13)">
</text><text class="terminal-1769845449-r2" x="183" y="361.6" textLength="12.2" clip-path="url(#terminal-1769845449-line-14)">│</text><text class="terminal-1769845449-r6" x="219.6" y="361.6" textLength="256.2" clip-path="url(#terminal-1769845449-line-14)">&#160;34b&#160;&#160;&#160;&#160;&#160;&#160;&#160;&#160;&#160;&#160;&#160;&#160;&#160;&#160;&#160;&#160;&#160;</text><text class="terminal-1769845449-r6" x="475.8" y="361.6" textLength="85.4" clip-path="url(#terminal-1769845449-line-14)">&#160;19GB&#160;&#160;</text><text class="terminal-1769845449-r2" x="1024.8" y="361.6" textLength="12.2" clip-path="url(#terminal-1769845449-line-14)">│</text><text class="terminal-1769845449-r1" x="1220" y="361.6" textLength="12.2" clip-path="url(#terminal-1769845449-line-14)">
</text><text class="terminal-1769845449-r2" x="183" y="386" textLength="12.2" clip-path="url(#terminal-1769845449-line-15)">│</text><text class="terminal-1769845449-r6" x="219.6" y="386" textLength="256.2" clip-path="url(#terminal-1769845449-line-15)">&#160;70b&#160;&#160;&#160;&#160;&#160;&#160;&#160;&#160;&#160;&#160;&#160;&#160;&#160;&#160;&#160;&#160;&#160;</text><text class="terminal-1769845449-r6" x="475.8" y="386" textLength="85.4" clip-path="url(#terminal-1769845449-line-15)">&#160;39GB&#160;&#160;</text><text class="terminal-1769845449-r2" x="1024.8" y="386" textLength="12.2" clip-path="url(#terminal-1769845449-line-15)">│</text><text class="terminal-1769845449-r1" x="1220" y="386" textLength="12.2" clip-path="url(#terminal-1769845449-line-15)">
</text><text class="terminal-1769845449-r2" x="183" y="410.4" textLength="12.2" clip-path="url(#terminal-1769845449-line-16)">│</text><text class="terminal-1769845449-r6" x="219.6" y="410.4" textLength="256.2" clip-path="url(#terminal-1769845449-line-16)">&#160;7b-code&#160;&#160;&#160;&#160;&#160;&#160;&#160;&#160;&#160;&#160;&#160;&#160;&#160;</text><text class="terminal-1769845449-r6" x="475.8" y="410.4" textLength="85.4" clip-path="url(#terminal-1769845449-line-16)">&#160;3.8GB&#160;</text><text class="terminal-1769845449-r2" x="1024.8" y="410.4" textLength="12.2" clip-path="url(#terminal-1769845449-line-16)">│</text><text class="terminal-1769845449-r1" x="1220" y="410.4" textLength="12.2" clip-path="url(#terminal-1769845449-line-16)">
</text><text class="terminal-1769845449-r2" x="183" y="434.8" textLength="12.2" clip-path="url(#terminal-1769845449-line-17)">│</text><text class="terminal-1769845449-r6" x="219.6" y="434.8" textLength="256.2" clip-path="url(#terminal-1769845449-line-17)">&#160;7b-code-q2_K&#160;&#160;&#160;&#160;&#160;&#160;&#160;&#160;</text><text class="terminal-1769845449-r6" x="475.8" y="434.8" textLength="85.4" clip-path="url(#terminal-1769845449-line-17)">&#160;2.8GB&#160;</text><text class="terminal-1769845449-r2" x="1024.8" y="434.8" textLength="12.2" clip-path="url(#terminal-1769845449-line-17)">│</text><text class="terminal-1769845449-r1" x="1220" y="434.8" textLength="12.2" clip-path="url(#terminal-1769845449-line-17)">
</text><text class="terminal-1769845449-r2" x="183" y="459.2" textLength="12.2" clip-path="url(#terminal-1769845449-line-18)">│</text><text class="terminal-1769845449-r6" x="219.6" y="459.2" textLength="256.2" clip-path="url(#terminal-1769845449-line-18)">&#160;7b-code-q3_K_S&#160;&#160;&#160;&#160;&#160;&#160;</text><text class="terminal-1769845449-r6" x="475.8" y="459.2" textLength="85.4" clip-path="url(#terminal-1769845449-line-18)">&#160;2.9GB&#160;</text><text class="terminal-1769845449-r2" x="1024.8" y="459.2" textLength="12.2" clip-path="url(#terminal-1769845449-line-18)">│</text><text class="terminal-1769845449-r1" x="1220" y="459.2" textLength="12.2" clip-path="url(#terminal-1769845449-line-18)">
</text><text class="terminal-1769845449-r2" x="183" y="483.6" textLength="12.2" clip-path="url(#terminal-1769845449-line-19)">│</text><text class="terminal-1769845449-r6" x="219.6" y="483.6" textLength="256.2" clip-path="url(#terminal-1769845449-line-19)">&#160;7b-code-q3_K_M&#160;&#160;&#160;&#160;&#160;&#160;</text><text class="terminal-1769845449-r6" x="475.8" y="483.6" textLength="85.4" clip-path="url(#terminal-1769845449-line-19)">&#160;3.3GB&#160;</text><text class="terminal-1769845449-r2" x="1024.8" y="483.6" textLength="12.2" clip-path="url(#terminal-1769845449-line-19)">│</text><text class="terminal-1769845449-r1" x="1220" y="483.6" textLength="12.2" clip-path="url(#terminal-1769845449-line-19)">
</text><text class="terminal-1769845449-r2" x="183" y="508" textLength="12.2" clip-path="url(#terminal-1769845449-line-20)">│</text><text class="terminal-1769845449-r6" x="219.6" y="508" textLength="256.2" clip-path="url(#terminal-1769845449-line-20)">&#160;7b-code-q3_K_L&#160;&#160;&#160;&#160;&#160;&#160;</text><text class="terminal-1769845449-r6" x="475.8" y="508" textLength="85.4" clip-path="url(#terminal-1769845449-line-20)">&#160;3.6GB&#160;</text><text class="terminal-1769845449-r2" x="1024.8" y="508" textLength="12.2" clip-path="url(#terminal-1769845449-line-20)">│</text><text class="terminal-1769845449-r1" x="1220" y="508" textLength="12.2" clip-path="url(#terminal-1769845449-line-20)">
</text><text class="terminal-1769845449-r2" x="183" y="532.4" textLength="12.2" clip-path="url(#terminal-1769845449-line-21)">│</text><text class="terminal-1769845449-r2" x="1024.8" y="532.4" textLength="12.2" clip-path="url(#terminal-1769845449-line-21)">│</text><text class="terminal-1769845449-r1" x="1220" y="532.4" textLength="12.2" clip-path="url(#terminal-1769845449-line-21)">
</text><text class="terminal-1769845449-r2" x="183" y="556.8" textLength="12.2" clip-path="url(#terminal-1769845449-line-22)">│</text><text class="terminal-1769845449-r7" x="439.2" y="556.8" textLength="329.4" clip-path="url(#terminal-1769845449-line-22)">Enter=Select&#160;&#160;Escape=Cancel</text><text class="terminal-1769845449-r2" x="1024.8" y="556.8" textLength="12.2" clip-path="url(#terminal-1769845449-line-22)">│</text><text class="terminal-1769845449-r1" x="1220" y="556.8" textLength="12.2" clip-path="url(#terminal-1769845449-line-22)">
</text><text class="terminal-1769845449-r2" x="183" y="581.2" textLength="12.2" clip-path="url(#terminal-1769845449-line-23)">│</text><text class="terminal-1769845449-r2" x="1024.8" y="581.2" textLength="12.2" clip-path="url(#terminal-1769845449-line-23)">│</text><text class="terminal-1769845449-r1" x="1220" y="581.2" textLength="12.2" clip-path="url(#terminal-1769845449-line-23)">
</text><text class="terminal-1769845449-r2" x="183" y="605.6" textLength="12.2" clip-path="url(#terminal-1769845449-line-24)">└</text><text class="terminal-1769845449-r2" x="195.2" y="605.6" textLength="829.6" clip-path="url(#terminal-1769845449-line-24)">────────────────────────────────────────────────────────────────────</text><text class="terminal-1769845449-r2" x="1024.8" y="605.6" textLength="12.2" clip-path="url(#terminal-1769845449-line-24)">┘</text><text class="terminal-1769845449-r1" x="1220" y="605.6" textLength="12.2" clip-path="url(#terminal-1769845449-line-24)">
</text><text class="terminal-1769845449-r1" x="1220" y="630" textLength="12.2" clip-path="url(#terminal-1769845449-line-25)">
</text><text class="terminal-1769845449-r1" x="1220" y="654.4" textLength="12.2" clip-path="url(#terminal-1769845449-line-26)">
</text>
    </g>
    </g>
</svg>
